<?xml version="1.0" encoding="utf-8"?>
<!-- Generator: Adobe Illustrator 19.1.0, SVG Export Plug-In . SVG Version: 6.00 Build 0)  -->
<svg version="1.1" id="Layer_1" xmlns="http://www.w3.org/2000/svg" xmlns:xlink="http://www.w3.org/1999/xlink" x="0px" y="0px"
	 viewBox="0 0 629.3 629.3" style="enable-background:new 0 0 629.3 629.3;" xml:space="preserve">
<style type="text/css">
	.st0{fill:none;stroke:#000000;stroke-miterlimit:10;}
	.st1{stroke:#000000;stroke-miterlimit:10;}
</style>
<polygon class="st0" points="314,10 352.3,62.5 404.4,23.6 425.5,85 486.7,63.3 488.8,128.2 553.8,125.4 536.6,188.1 599.5,204.6 
	564.6,259.5 619.8,293.8 570.3,335.9 613,384.9 553.3,410.6 579.6,470 515,477 522.6,541.5 458.8,529.1 447,593 389.7,562.4 
	359.7,620 314,573.8 268.3,620 238.2,562.4 180.9,593 169.1,529.1 105.4,541.5 113,477 48.3,470 74.6,410.6 14.9,384.9 57.6,335.9 
	8.1,293.8 63.3,259.5 28.5,204.6 91.3,188.1 74.2,125.4 139.1,128.2 141.2,63.3 202.4,85 223.6,23.6 275.6,62.5 "/>
</svg>
