<?xml version="1.0" encoding="utf-8"?>
<!-- Generator: Adobe Illustrator 19.1.0, SVG Export Plug-In . SVG Version: 6.00 Build 0)  -->
<svg version="1.1" id="Layer_1" xmlns="http://www.w3.org/2000/svg" xmlns:xlink="http://www.w3.org/1999/xlink" x="0px" y="0px"
	 viewBox="0 0 480.9 480.8" style="enable-background:new 0 0 480.9 480.8;" xml:space="preserve">
<style type="text/css">
	.st0{fill:none;stroke:#000000;stroke-miterlimit:10;}
	.st1{stroke:#000000;stroke-miterlimit:10;}
</style>
<g>
	<polygon class="st0" points="473.1,473.1 466.7,469.7 461.7,473.7 456.6,469.7 451.6,473.7 446.6,469.7 441.5,473.7 436.5,469.7 
		431.5,473.7 426.5,469.7 421.5,473.7 416.4,469.7 411.4,473.7 406.4,469.7 401.3,473.7 396.3,469.7 391.3,473.7 386.3,469.7 
		381.2,473.7 376.2,469.7 371.2,473.7 366.2,469.7 361.1,473.7 356.1,469.7 351.1,473.7 346.1,469.7 341,473.7 336,469.7 331,473.7 
		326,469.7 320.9,473.7 315.9,469.7 310.9,473.7 305.8,469.7 300.8,473.7 295.8,469.7 290.8,473.7 285.7,469.7 280.7,473.7 
		275.7,469.7 270.7,473.7 265.6,469.7 260.6,473.7 255.6,469.7 250.5,473.7 245.5,469.7 240.5,473.7 235.5,469.7 230.4,473.7 
		225.4,469.7 220.4,473.7 215.4,469.7 210.3,473.7 205.3,469.7 200.3,473.7 195.2,469.7 190.2,473.7 185.2,469.7 180.2,473.7 
		175.1,469.7 170.1,473.7 165.1,469.7 160.1,473.7 155,469.7 150,473.7 145,469.7 140,473.7 134.9,469.7 129.9,473.7 124.9,469.7 
		119.8,473.7 114.8,469.7 109.8,473.7 104.8,469.7 99.7,473.7 94.7,469.7 89.7,473.7 84.6,469.7 79.6,473.7 74.6,469.7 69.5,473.7 
		64.5,469.7 59.5,473.7 54.5,469.7 49.4,473.7 44.4,469.7 39.4,473.7 34.3,469.7 29.3,473.7 24.3,469.7 19.2,473.7 14.2,469.7 
		7.7,473.1 11.1,466.7 7.1,461.7 11.1,456.6 7.1,451.6 11.1,446.6 7.1,441.5 11.1,436.5 7.1,431.5 11.1,426.5 7.1,421.5 11.1,416.4 
		7.1,411.4 11.1,406.4 7.1,401.3 11.1,396.3 7.1,391.3 11.1,386.3 7.1,381.2 11.1,376.2 7.1,371.2 11.1,366.2 7.1,361.1 11.1,356.1 
		7.1,351.1 11.1,346.1 7.1,341 11.1,336 7.1,331 11.1,326 7.1,320.9 11.1,315.9 7.1,310.9 11.1,305.8 7.1,300.8 11.1,295.8 
		7.1,290.8 11.1,285.7 7.1,280.7 11.1,275.7 7.1,270.7 11.1,265.6 7.1,260.6 11.1,255.6 7.1,250.5 11.1,245.5 7.1,240.5 11.1,235.5 
		7.1,230.4 11.1,225.4 7.1,220.4 11.1,215.4 7.1,210.3 11.1,205.3 7.1,200.3 11.1,195.2 7.1,190.2 11.1,185.2 7.1,180.2 11.1,175.1 
		7.1,170.1 11.1,165.1 7.1,160.1 11.1,155 7.1,150 11.1,145 7.1,140 11.1,134.9 7.1,129.9 11.1,124.9 7.1,119.8 11.1,114.8 
		7.1,109.8 11.1,104.8 7.1,99.7 11.1,94.7 7.1,89.7 11.1,84.6 7.1,79.6 11.1,74.6 7.1,69.5 11.1,64.5 7.1,59.5 11.1,54.5 7.1,49.4 
		11.1,44.4 7.1,39.4 11.1,34.3 7.1,29.3 11.1,24.3 7.1,19.2 11.1,14.2 7.7,7.7 14.2,11.1 19.2,7.1 24.2,11.1 29.2,7.1 34.3,11.1 
		39.3,7.1 44.3,11.1 49.3,7.1 54.4,11.1 59.4,7.1 64.4,11.1 69.4,7.1 74.5,11.1 79.5,7.1 84.5,11.1 89.6,7.1 94.6,11.1 99.6,7.1 
		104.6,11.1 109.7,7.1 114.7,11.1 119.7,7.1 124.7,11.1 129.8,7.1 134.8,11.1 139.8,7.1 144.8,11.1 149.9,7.1 154.9,11.1 159.9,7.1 
		164.9,11.1 170,7.1 175,11.1 180,7.1 185.1,11.1 190.1,7.1 195.1,11.1 200.1,7.1 205.2,11.1 210.2,7.1 215.2,11.1 220.2,7.1 
		225.3,11.1 230.3,7.1 235.3,11.1 240.4,7.1 245.4,11.1 250.4,7.1 255.4,11.1 260.5,7.1 265.5,11.1 270.5,7.1 275.5,11.1 280.6,7.1 
		285.6,11.1 290.6,7.1 295.6,11.1 300.7,7.1 305.7,11.1 310.7,7.1 315.8,11.1 320.8,7.1 325.8,11.1 330.8,7.1 335.9,11.1 340.9,7.1 
		345.9,11.1 350.9,7.1 356,11.1 361,7.1 366,11.1 371.1,7.1 376.1,11.1 381.1,7.1 386.2,11.1 391.2,7.1 396.2,11.1 401.2,7.1 
		406.3,11.1 411.3,7.1 416.3,11.1 421.4,7.1 426.4,11.1 431.4,7.1 436.5,11.1 441.5,7.1 446.5,11.1 451.6,7.1 456.6,11.1 461.6,7.1 
		466.7,11.1 473.1,7.7 469.7,14.2 473.7,19.2 469.7,24.2 473.7,29.2 469.7,34.3 473.7,39.3 469.7,44.3 473.7,49.3 469.7,54.4 
		473.7,59.4 469.7,64.4 473.7,69.4 469.7,74.5 473.7,79.5 469.7,84.5 473.7,89.6 469.7,94.6 473.7,99.6 469.7,104.6 473.7,109.7 
		469.7,114.7 473.7,119.7 469.7,124.7 473.7,129.8 469.7,134.8 473.7,139.8 469.7,144.8 473.7,149.9 469.7,154.9 473.7,159.9 
		469.7,164.9 473.7,170 469.7,175 473.7,180 469.7,185.1 473.7,190.1 469.7,195.1 473.7,200.1 469.7,205.2 473.7,210.2 469.7,215.2 
		473.7,220.2 469.7,225.3 473.7,230.3 469.7,235.3 473.7,240.4 469.7,245.4 473.7,250.4 469.7,255.4 473.7,260.5 469.7,265.5 
		473.7,270.5 469.7,275.5 473.7,280.6 469.7,285.6 473.7,290.6 469.7,295.6 473.7,300.7 469.7,305.7 473.7,310.7 469.7,315.8 
		473.7,320.8 469.7,325.8 473.7,330.8 469.7,335.9 473.7,340.9 469.7,345.9 473.7,350.9 469.7,356 473.7,361 469.7,366 473.7,371.1 
		469.7,376.1 473.7,381.1 469.7,386.2 473.7,391.2 469.7,396.2 473.7,401.2 469.7,406.3 473.7,411.3 469.7,416.3 473.7,421.4 
		469.7,426.4 473.7,431.4 469.7,436.5 473.7,441.5 469.7,446.5 473.7,451.6 469.7,456.6 473.7,461.6 469.7,466.9 	"/>
</g>
</svg>
