<?xml version="1.0" encoding="utf-8"?>
<!-- Generator: Adobe Illustrator 19.1.0, SVG Export Plug-In . SVG Version: 6.00 Build 0)  -->
<svg version="1.1" id="Layer_1" xmlns="http://www.w3.org/2000/svg" xmlns:xlink="http://www.w3.org/1999/xlink" x="0px" y="0px"
	 viewBox="0 0 629.3 629.3" style="enable-background:new 0 0 629.3 629.3;" xml:space="preserve">
<style type="text/css">
	.st0{fill:none;stroke:#000000;stroke-miterlimit:10;}
	.st1{stroke:#000000;stroke-miterlimit:10;}
</style>
<polygon class="st0" points="415.7,47.2 420.2,69.2 439.3,57.3 441.7,79.7 461.8,69.5 462.3,92 483.2,83.7 481.6,106.1 503.2,99.7 
	499.6,121.9 521.6,117.5 516.1,139.3 538.5,136.8 531,158.1 553.5,157.6 544.1,178.1 566.6,179.7 555.4,199.2 577.6,202.8 
	564.8,221.2 586.6,226.8 572.1,244 593.3,251.5 577.4,267.4 597.8,276.8 580.5,291.1 600,302.3 581.5,315.1 600,327.9 580.4,339 
	597.6,353.4 577.1,362.7 593,378.7 571.7,386 586.1,403.3 564.3,408.8 577,427.3 554.8,430.8 565.8,450.4 543.4,451.8 552.6,472.3 
	530.1,471.8 537.5,493 515.2,490.5 520.6,512.3 498.6,507.7 502,530 480.5,523.4 481.9,545.9 461.1,537.5 460.5,559.9 440.5,549.7 
	437.9,572 418.9,560 414.3,582 396.4,568.4 389.9,589.9 373.3,574.7 364.9,595.5 349.8,578.9 339.5,598.9 325.9,581 313.9,600 
	302,580.9 288.3,598.8 278.1,578.7 262.9,595.3 254.6,574.4 237.9,589.5 231.5,567.9 213.6,581.5 209.1,559.5 190,571.4 187.6,549 
	167.5,559.2 167,536.7 146.1,545 147.7,522.5 126.1,529 129.7,506.7 107.7,511.2 113.2,489.4 90.9,491.8 98.3,470.6 75.8,471.1 
	85.2,450.6 62.8,449 73.9,429.5 51.7,425.9 64.5,407.4 42.8,401.9 57.2,384.7 36,377.2 51.9,361.3 31.5,351.9 48.8,337.6 
	29.3,326.4 47.8,313.6 29.3,300.8 48.9,289.7 31.7,275.2 52.2,266 36.3,250 57.6,242.7 43.2,225.3 65,219.9 52.3,201.4 74.5,197.9 
	63.5,178.3 85.9,176.9 76.7,156.3 99.2,156.9 91.8,135.6 114.2,138.2 108.7,116.4 130.7,121 127.3,98.7 148.8,105.2 147.4,82.8 
	168.2,91.2 168.8,68.7 188.8,79 191.4,56.7 210.4,68.7 215,46.6 232.9,60.3 239.4,38.8 256,54 264.4,33.2 279.5,49.8 289.8,29.8 
	303.4,47.7 315.4,28.7 327.3,47.8 341,29.9 351.2,50 366.4,33.4 374.7,54.3 391.4,39.2 397.8,60.8 "/>
</svg>
