<?xml version="1.0" encoding="utf-8"?>
<!-- Generator: Adobe Illustrator 19.1.0, SVG Export Plug-In . SVG Version: 6.00 Build 0)  -->
<svg version="1.1" id="Layer_1" xmlns="http://www.w3.org/2000/svg" xmlns:xlink="http://www.w3.org/1999/xlink" x="0px" y="0px"
	 viewBox="0 0 1034.6 776" style="enable-background:new 0 0 1034.6 776;" xml:space="preserve">
<style type="text/css">
	.st0{fill:none;stroke:#000000;stroke-miterlimit:10;}
	.st1{stroke:#000000;stroke-miterlimit:10;}
</style>
<path class="st0" d="M27.8,130.1c4.9-64.5,59.7-117,126.6-119.5C164.9,6.3,504.3,3.9,517,3.9c20.1,0,365.8,6.1,379,16.1
	c66.5,4.2,120.6,58.5,124.1,124.8c4.8,7.3,7.4,234.4,7.4,243.1c0,8.7-2.7,235.8-7.4,243.1c-3.6,66.3-57.6,120.6-124.1,124.8
	c-13.2,9.9-358.9,16.1-379,16.1c-20.1,0-365.8-6.1-379-16.1c-66.5-4.2-120.6-58.5-124.1-124.8c-4.8-7.3-7.4-234.4-7.4-243.1
	C6.4,372.7,14.6,140.1,27.8,130.1z"/>
<polygon class="st0" points="419.8,254.3 651.4,388 419.8,521.7 "/>
</svg>
