<?xml version="1.0" encoding="utf-8"?>
<!-- Generator: Adobe Illustrator 19.1.0, SVG Export Plug-In . SVG Version: 6.00 Build 0)  -->
<svg version="1.1" id="Layer_1" xmlns="http://www.w3.org/2000/svg" xmlns:xlink="http://www.w3.org/1999/xlink" x="0px" y="0px"
	 viewBox="0 0 768 1024" style="enable-background:new 0 0 768 1024;" xml:space="preserve">
<style type="text/css">
	.st0{clip-path:url(#SVGID_2_);}
	.st1{clip-path:url(#SVGID_4_);}
	.st2{fill:none;stroke:#000000;stroke-miterlimit:10;}
	.st3{fill:none;stroke:#231F20;stroke-miterlimit:10;}
	.st4{stroke:#231F20;stroke-width:0.5;stroke-miterlimit:10;}
	.st5{clip-path:url(#SVGID_6_);}
	.st6{fill:none;stroke:#231F20;stroke-width:0.5;stroke-miterlimit:10;}
	.st7{fill:#202020;}
	.st8{clip-path:url(#SVGID_8_);}
	.st9{stroke:#000000;stroke-miterlimit:10;}
	.st10{clip-path:url(#SVGID_10_);}
	.st11{fill:none;stroke:#000000;}
	.st12{clip-path:url(#SVGID_12_);}
	.st13{clip-path:url(#SVGID_14_);}
	.st14{clip-path:url(#SVGID_16_);}
	.st15{clip-path:url(#SVGID_18_);}
</style>
<rect x="323.5" y="41.4" class="st2" width="385.2" height="385.2"/>
<line class="st2" x1="38" y1="41.5" x2="225" y2="41.5"/>
<line class="st2" x1="38" y1="96.5" x2="260" y2="96.5"/>
<line class="st2" x1="38" y1="151.5" x2="258" y2="151.5"/>
<line class="st2" x1="38" y1="205.5" x2="274" y2="205.5"/>
<line class="st2" x1="38" y1="260.5" x2="226" y2="260.5"/>
<line class="st2" x1="38" y1="315.5" x2="240" y2="315.5"/>
<line class="st2" x1="38" y1="370.5" x2="232" y2="370.5"/>
<line class="st2" x1="38" y1="424.5" x2="252" y2="424.5"/>
<line class="st2" x1="38" y1="479.5" x2="673" y2="479.5"/>
<line class="st2" x1="38" y1="534.5" x2="581" y2="534.5"/>
<line class="st2" x1="38" y1="589.5" x2="620" y2="589.5"/>
<line class="st2" x1="38" y1="643.5" x2="575" y2="643.5"/>
<line class="st2" x1="38" y1="698.5" x2="571" y2="698.5"/>
<line class="st2" x1="38" y1="753.5" x2="622" y2="753.5"/>
<line class="st2" x1="38" y1="808.5" x2="602" y2="808.5"/>
<line class="st2" x1="38" y1="862.5" x2="609" y2="862.5"/>
<line class="st2" x1="38" y1="917.5" x2="567" y2="917.5"/>
<line class="st2" x1="38" y1="972.5" x2="623" y2="972.5"/>
</svg>
