<?xml version="1.0" encoding="utf-8"?>
<!-- Generator: Adobe Illustrator 19.1.0, SVG Export Plug-In . SVG Version: 6.00 Build 0)  -->
<svg version="1.1" id="Layer_1" xmlns="http://www.w3.org/2000/svg" xmlns:xlink="http://www.w3.org/1999/xlink" x="0px" y="0px"
	 viewBox="0 0 1580.9 1988.5" style="enable-background:new 0 0 1580.9 1988.5;" xml:space="preserve">
<style type="text/css">
	.st0{clip-path:url(#SVGID_2_);}
	.st1{clip-path:url(#SVGID_4_);}
	.st2{fill:none;stroke:#000000;stroke-miterlimit:10;}
	.st3{fill:none;stroke:#231F20;stroke-miterlimit:10;}
	.st4{stroke:#231F20;stroke-width:0.5;stroke-miterlimit:10;}
	.st5{clip-path:url(#SVGID_6_);}
	.st6{fill:none;stroke:#231F20;stroke-width:0.5;stroke-miterlimit:10;}
	.st7{fill:#202020;}
	.st8{clip-path:url(#SVGID_8_);}
	.st9{stroke:#000000;stroke-miterlimit:10;}
	.st10{clip-path:url(#SVGID_10_);}
	.st11{fill:none;stroke:#000000;}
	.st12{clip-path:url(#SVGID_12_);}
	.st13{clip-path:url(#SVGID_14_);}
	.st14{clip-path:url(#SVGID_16_);}
	.st15{clip-path:url(#SVGID_18_);}
</style>
<g>
	<line class="st2" x1="-0.4" y1="-0.2" x2="1580.6" y2="-0.2"/>
	<line class="st2" x1="-0.4" y1="63.8" x2="1580.6" y2="63.8"/>
	<line class="st2" x1="-0.4" y1="127.8" x2="1580.6" y2="127.8"/>
	<line class="st2" x1="-0.4" y1="192.8" x2="1580.6" y2="192.8"/>
	<line class="st2" x1="-0.4" y1="256.8" x2="1580.6" y2="256.8"/>
	<line class="st2" x1="-0.4" y1="320.8" x2="1580.6" y2="320.8"/>
	<line class="st2" x1="-0.4" y1="384.8" x2="1580.6" y2="384.8"/>
	<line class="st2" x1="-0.4" y1="448.8" x2="1580.6" y2="448.8"/>
	<line class="st2" x1="-0.4" y1="512.8" x2="1580.6" y2="512.8"/>
	<line class="st2" x1="-0.4" y1="576.8" x2="1580.6" y2="576.8"/>
	<line class="st2" x1="-0.4" y1="641.8" x2="1580.6" y2="641.8"/>
	<line class="st2" x1="-0.4" y1="705.8" x2="1580.6" y2="705.8"/>
	<line class="st2" x1="-0.4" y1="769.8" x2="1580.6" y2="769.8"/>
	<line class="st2" x1="-0.4" y1="833.8" x2="1580.6" y2="833.8"/>
	<line class="st2" x1="-0.4" y1="897.8" x2="1580.6" y2="897.8"/>
	<line class="st2" x1="-0.4" y1="961.8" x2="1580.6" y2="961.8"/>
	<line class="st2" x1="-0.4" y1="1026.8" x2="1580.6" y2="1026.8"/>
	<line class="st2" x1="-0.4" y1="1090.8" x2="1580.6" y2="1090.8"/>
	<line class="st2" x1="-0.4" y1="1154.8" x2="1580.6" y2="1154.8"/>
	<line class="st2" x1="-0.4" y1="1218.8" x2="1580.6" y2="1218.8"/>
	<line class="st2" x1="-0.4" y1="1282.8" x2="1580.6" y2="1282.8"/>
	<line class="st2" x1="-0.4" y1="1346.8" x2="1580.6" y2="1346.8"/>
	<line class="st2" x1="-0.4" y1="1410.8" x2="1580.6" y2="1410.8"/>
	<line class="st2" x1="-0.4" y1="1475.8" x2="1580.6" y2="1475.8"/>
	<line class="st2" x1="-0.4" y1="1539.8" x2="1580.6" y2="1539.8"/>
	<line class="st2" x1="-0.4" y1="1603.8" x2="1580.6" y2="1603.8"/>
	<line class="st2" x1="-0.4" y1="1667.8" x2="1580.6" y2="1667.8"/>
	<line class="st2" x1="-0.4" y1="1731.8" x2="1580.6" y2="1731.8"/>
	<line class="st2" x1="-0.4" y1="1795.8" x2="1580.6" y2="1795.8"/>
	<line class="st2" x1="-0.4" y1="1859.8" x2="1580.6" y2="1859.8"/>
	<line class="st2" x1="-0.4" y1="1924.8" x2="1580.6" y2="1924.8"/>
	<line class="st2" x1="-0.4" y1="1988.8" x2="1580.6" y2="1988.8"/>
</g>
</svg>
