<?xml version="1.0" encoding="utf-8"?>
<!-- Generator: Adobe Illustrator 19.1.0, SVG Export Plug-In . SVG Version: 6.00 Build 0)  -->
<svg version="1.1" id="Layer_1" xmlns="http://www.w3.org/2000/svg" xmlns:xlink="http://www.w3.org/1999/xlink" x="0px" y="0px"
	 viewBox="0 0 1282 1187.5" style="enable-background:new 0 0 1282 1187.5;" xml:space="preserve">
<style type="text/css">
	.st0{fill:none;stroke:#000000;stroke-miterlimit:10;}
	.st1{fill:none;stroke:#231F20;stroke-miterlimit:10;}
	.st2{stroke:#231F20;stroke-width:0.5;stroke-miterlimit:10;}
	.st3{clip-path:url(#SVGID_2_);}
	.st4{fill:none;stroke:#231F20;stroke-width:0.5;stroke-miterlimit:10;}
	.st5{fill:#202020;}
	.st6{clip-path:url(#SVGID_4_);}
	.st7{stroke:#000000;stroke-miterlimit:10;}
	.st8{clip-path:url(#SVGID_6_);}
	.st9{fill:none;stroke:#000000;}
	.st10{clip-path:url(#SVGID_8_);}
	.st11{clip-path:url(#SVGID_10_);}
</style>
<g>
	<line class="st0" x1="14.2" y1="0" x2="1282.2" y2="0"/>
	<line class="st0" x1="14.2" y1="63" x2="1282.2" y2="63"/>
	<line class="st0" x1="14.2" y1="125" x2="1282.2" y2="125"/>
	<line class="st0" x1="14.2" y1="188" x2="1282.2" y2="188"/>
	<line class="st0" x1="14.2" y1="250" x2="1282.2" y2="250"/>
	<line class="st0" x1="14.2" y1="313" x2="1282.2" y2="313"/>
	<line class="st0" x1="14.2" y1="375" x2="1282.2" y2="375"/>
	<line class="st0" x1="14.2" y1="438" x2="1282.2" y2="438"/>
	<line class="st0" x1="14.2" y1="500" x2="1282.2" y2="500"/>
	<line class="st0" x1="14.2" y1="563" x2="1282.2" y2="563"/>
	<line class="st0" x1="14.2" y1="625" x2="1282.2" y2="625"/>
	<line class="st0" x1="14.2" y1="688" x2="1282.2" y2="688"/>
	<line class="st0" x1="14.2" y1="750" x2="1282.2" y2="750"/>
	<line class="st0" x1="14.2" y1="813" x2="1282.2" y2="813"/>
	<line class="st0" x1="14.2" y1="875" x2="1282.2" y2="875"/>
	<line class="st0" x1="14.2" y1="938" x2="1282.2" y2="938"/>
	<line class="st0" x1="14.2" y1="1000" x2="1282.2" y2="1000"/>
	<line class="st0" x1="14.2" y1="1063" x2="1282.2" y2="1063"/>
	<line class="st0" x1="14.2" y1="1125" x2="1282.2" y2="1125"/>
</g>
</svg>
