<?xml version="1.0" encoding="utf-8"?>
<!-- Generator: Adobe Illustrator 19.1.0, SVG Export Plug-In . SVG Version: 6.00 Build 0)  -->
<svg version="1.1" id="Layer_1" xmlns="http://www.w3.org/2000/svg" xmlns:xlink="http://www.w3.org/1999/xlink" x="0px" y="0px"
	 viewBox="0 0 898.9 640" style="enable-background:new 0 0 898.9 640;" xml:space="preserve">
<style type="text/css">
	.st0{clip-path:url(#SVGID_2_);}
	.st1{clip-path:url(#SVGID_4_);}
	.st2{fill:none;stroke:#000000;stroke-miterlimit:10;}
	.st3{fill:none;stroke:#231F20;stroke-miterlimit:10;}
	.st4{stroke:#231F20;stroke-width:0.5;stroke-miterlimit:10;}
	.st5{clip-path:url(#SVGID_6_);}
	.st6{fill:none;stroke:#231F20;stroke-width:0.5;stroke-miterlimit:10;}
	.st7{fill:#202020;}
	.st8{clip-path:url(#SVGID_8_);}
	.st9{stroke:#000000;stroke-miterlimit:10;}
	.st10{clip-path:url(#SVGID_10_);}
	.st11{fill:none;stroke:#000000;}
	.st12{clip-path:url(#SVGID_12_);}
	.st13{clip-path:url(#SVGID_14_);}
	.st14{clip-path:url(#SVGID_16_);}
	.st15{clip-path:url(#SVGID_18_);}
</style>
<g>
	<path class="st3" d="M183.9,115.2c-113.1,113.1-113.1,296.5,0,409.6"/>
	<path class="st3" d="M148.8,67.2c-139.6,139.6-139.6,366,0,505.6"/>
	<path class="st3" d="M224.8,156.2c-90.5,90.5-90.5,237.2,0,327.7"/>
	<path class="st3" d="M265.8,197.1c-67.9,67.9-67.9,177.9,0,245.8"/>
	<path class="st3" d="M306.8,238.1c-45.2,45.2-45.2,118.6,0,163.8"/>
	<path class="st3" d="M347.7,279c-22.6,22.6-22.6,59.3,0,81.9"/>
</g>
<g>
	<defs>
		<rect id="SVGID_13_" x="-359.7" y="-763" width="640" height="640"/>
	</defs>
	<clipPath id="SVGID_2_">
		<use xlink:href="#SVGID_13_"  style="overflow:visible;"/>
	</clipPath>
	<g class="st0">
		<circle class="st2" cx="-39.7" cy="-443" r="504.4"/>
		<circle class="st2" cx="-39.7" cy="-443" r="457.3"/>
	</g>
</g>
</svg>
