<?xml version="1.0" encoding="utf-8"?>
<!-- Generator: Adobe Illustrator 19.1.0, SVG Export Plug-In . SVG Version: 6.00 Build 0)  -->
<svg version="1.1" id="Layer_1" xmlns="http://www.w3.org/2000/svg" xmlns:xlink="http://www.w3.org/1999/xlink" x="0px" y="0px"
	 viewBox="0 0 3171.7 2147.6" style="enable-background:new 0 0 3171.7 2147.6;" xml:space="preserve">
<style type="text/css">
	.st0{clip-path:url(#SVGID_2_);}
	.st1{clip-path:url(#SVGID_4_);}
	.st2{fill:none;stroke:#000000;stroke-miterlimit:10;}
	.st3{fill:none;stroke:#231F20;stroke-miterlimit:10;}
	.st4{stroke:#231F20;stroke-width:0.5;stroke-miterlimit:10;}
	.st5{clip-path:url(#SVGID_6_);}
	.st6{fill:none;stroke:#231F20;stroke-width:0.5;stroke-miterlimit:10;}
	.st7{fill:#202020;}
	.st8{clip-path:url(#SVGID_8_);}
	.st9{stroke:#000000;stroke-miterlimit:10;}
	.st10{clip-path:url(#SVGID_10_);}
	.st11{fill:none;stroke:#000000;}
	.st12{clip-path:url(#SVGID_12_);}
	.st13{clip-path:url(#SVGID_14_);}
	.st14{clip-path:url(#SVGID_16_);}
	.st15{clip-path:url(#SVGID_18_);}
</style>
<g>
	<line class="st2" x1="-0.4" y1="0.3" x2="3171.6" y2="0.3"/>
	<line class="st2" x1="-0.4" y1="63.3" x2="3171.6" y2="63.3"/>
	<line class="st2" x1="-0.4" y1="126.3" x2="3171.6" y2="126.3"/>
	<line class="st2" x1="-0.4" y1="189.3" x2="3171.6" y2="189.3"/>
	<line class="st2" x1="-0.4" y1="252.3" x2="3171.6" y2="252.3"/>
	<line class="st2" x1="-0.4" y1="315.3" x2="3171.6" y2="315.3"/>
	<line class="st2" x1="-0.4" y1="379.3" x2="3171.6" y2="379.3"/>
	<line class="st2" x1="-0.4" y1="442.3" x2="3171.6" y2="442.3"/>
	<line class="st2" x1="-0.4" y1="505.3" x2="3171.6" y2="505.3"/>
	<line class="st2" x1="-0.4" y1="568.3" x2="3171.6" y2="568.3"/>
	<line class="st2" x1="-0.4" y1="631.3" x2="3171.6" y2="631.3"/>
	<line class="st2" x1="-0.4" y1="694.3" x2="3171.6" y2="694.3"/>
	<line class="st2" x1="-0.4" y1="758.3" x2="3171.6" y2="758.3"/>
	<line class="st2" x1="-0.4" y1="821.3" x2="3171.6" y2="821.3"/>
	<line class="st2" x1="-0.4" y1="884.3" x2="3171.6" y2="884.3"/>
	<line class="st2" x1="-0.4" y1="947.3" x2="3171.6" y2="947.3"/>
	<line class="st2" x1="-0.4" y1="1010.3" x2="3171.6" y2="1010.3"/>
	<line class="st2" x1="-0.4" y1="1073.3" x2="3171.6" y2="1073.3"/>
	<line class="st2" x1="-0.4" y1="1137.3" x2="3171.6" y2="1137.3"/>
	<line class="st2" x1="-0.4" y1="1200.3" x2="3171.6" y2="1200.3"/>
	<line class="st2" x1="-0.4" y1="1263.3" x2="3171.6" y2="1263.3"/>
	<line class="st2" x1="-0.4" y1="1326.3" x2="3171.6" y2="1326.3"/>
	<line class="st2" x1="-0.4" y1="1389.3" x2="3171.6" y2="1389.3"/>
	<line class="st2" x1="-0.4" y1="1452.3" x2="3171.6" y2="1452.3"/>
	<line class="st2" x1="-0.4" y1="1516.3" x2="3171.6" y2="1516.3"/>
	<line class="st2" x1="-0.4" y1="1579.3" x2="3171.6" y2="1579.3"/>
	<line class="st2" x1="-0.4" y1="1642.3" x2="3171.6" y2="1642.3"/>
	<line class="st2" x1="-0.4" y1="1705.3" x2="3171.6" y2="1705.3"/>
	<line class="st2" x1="-0.4" y1="1768.3" x2="3171.6" y2="1768.3"/>
	<line class="st2" x1="-0.4" y1="1831.3" x2="3171.6" y2="1831.3"/>
	<line class="st2" x1="-0.4" y1="1895.3" x2="3171.6" y2="1895.3"/>
	<line class="st2" x1="-0.4" y1="1958.3" x2="3171.6" y2="1958.3"/>
	<line class="st2" x1="-0.4" y1="2021.3" x2="3171.6" y2="2021.3"/>
	<line class="st2" x1="-0.4" y1="2084.3" x2="3171.6" y2="2084.3"/>
	<line class="st2" x1="-0.4" y1="2147.3" x2="3171.6" y2="2147.3"/>
</g>
</svg>
