<?xml version="1.0" encoding="utf-8"?>
<!-- Generator: Adobe Illustrator 19.1.0, SVG Export Plug-In . SVG Version: 6.00 Build 0)  -->
<svg version="1.1" id="Layer_1" xmlns="http://www.w3.org/2000/svg" xmlns:xlink="http://www.w3.org/1999/xlink" x="0px" y="0px"
	 viewBox="0 0 1302.5 1681.7" style="enable-background:new 0 0 1302.5 1681.7;" xml:space="preserve">
<style type="text/css">
	.st0{clip-path:url(#SVGID_2_);}
	.st1{clip-path:url(#SVGID_4_);}
	.st2{fill:none;stroke:#000000;stroke-miterlimit:10;}
	.st3{fill:none;stroke:#231F20;stroke-miterlimit:10;}
	.st4{stroke:#231F20;stroke-width:0.5;stroke-miterlimit:10;}
	.st5{clip-path:url(#SVGID_6_);}
	.st6{fill:none;stroke:#231F20;stroke-width:0.5;stroke-miterlimit:10;}
	.st7{fill:#202020;}
	.st8{clip-path:url(#SVGID_8_);}
	.st9{stroke:#000000;stroke-miterlimit:10;}
	.st10{clip-path:url(#SVGID_10_);}
	.st11{fill:none;stroke:#000000;}
	.st12{clip-path:url(#SVGID_12_);}
	.st13{clip-path:url(#SVGID_14_);}
	.st14{clip-path:url(#SVGID_16_);}
	.st15{clip-path:url(#SVGID_18_);}
</style>
<g>
	<line class="st2" x1="0" y1="52.5" x2="1302" y2="52.5"/>
	<line class="st2" x1="0" y1="117.5" x2="1302" y2="117.5"/>
	<line class="st2" x1="0" y1="183.5" x2="1302" y2="183.5"/>
	<line class="st2" x1="0" y1="248.5" x2="1302" y2="248.5"/>
	<line class="st2" x1="0" y1="313.5" x2="1302" y2="313.5"/>
	<line class="st2" x1="0" y1="378.5" x2="1302" y2="378.5"/>
	<line class="st2" x1="0" y1="443.5" x2="1302" y2="443.5"/>
	<line class="st2" x1="0" y1="508.5" x2="1302" y2="508.5"/>
	<line class="st2" x1="0" y1="574.5" x2="1302" y2="574.5"/>
	<line class="st2" x1="0" y1="639.5" x2="1302" y2="639.5"/>
	<line class="st2" x1="0" y1="704.5" x2="1302" y2="704.5"/>
	<line class="st2" x1="0" y1="769.5" x2="1302" y2="769.5"/>
	<line class="st2" x1="0" y1="834.5" x2="1302" y2="834.5"/>
	<line class="st2" x1="0" y1="899.5" x2="1302" y2="899.5"/>
	<line class="st2" x1="0" y1="964.5" x2="1302" y2="964.5"/>
	<line class="st2" x1="0" y1="1030.5" x2="1302" y2="1030.5"/>
	<line class="st2" x1="0" y1="1095.5" x2="1302" y2="1095.5"/>
	<line class="st2" x1="0" y1="1160.5" x2="1302" y2="1160.5"/>
	<line class="st2" x1="0" y1="1225.5" x2="1302" y2="1225.5"/>
	<line class="st2" x1="0" y1="1290.5" x2="1302" y2="1290.5"/>
	<line class="st2" x1="0" y1="1355.5" x2="1302" y2="1355.5"/>
	<line class="st2" x1="0" y1="1421.5" x2="1302" y2="1421.5"/>
	<line class="st2" x1="0" y1="1486.5" x2="1302" y2="1486.5"/>
	<line class="st2" x1="0" y1="1551.5" x2="1302" y2="1551.5"/>
	<line class="st2" x1="0" y1="1616.5" x2="1302" y2="1616.5"/>
	<line class="st2" x1="0" y1="1681.5" x2="1302" y2="1681.5"/>
</g>
</svg>
