<?xml version="1.0" encoding="utf-8"?>
<!-- Generator: Adobe Illustrator 19.1.0, SVG Export Plug-In . SVG Version: 6.00 Build 0)  -->
<svg version="1.1" id="Layer_1" xmlns="http://www.w3.org/2000/svg" xmlns:xlink="http://www.w3.org/1999/xlink" x="0px" y="0px"
	 viewBox="0 0 1280 640" style="enable-background:new 0 0 1280 640;" xml:space="preserve">
<style type="text/css">
	.st0{fill:none;stroke:#000000;stroke-miterlimit:10;}
	.st1{fill:none;stroke:#231F20;stroke-miterlimit:10;}
	.st2{stroke:#231F20;stroke-width:0.5;stroke-miterlimit:10;}
	.st3{clip-path:url(#SVGID_2_);}
	.st4{fill:none;stroke:#231F20;stroke-width:0.5;stroke-miterlimit:10;}
	.st5{fill:#202020;}
	.st6{clip-path:url(#SVGID_4_);}
	.st7{stroke:#000000;stroke-miterlimit:10;}
	.st8{clip-path:url(#SVGID_6_);}
	.st9{fill:none;stroke:#000000;}
	.st10{clip-path:url(#SVGID_8_);}
	.st11{clip-path:url(#SVGID_10_);}
</style>
<g>
	<g>
		<g>
			<path class="st5" d="M1251.4,611.3c-5.3,5.2-10.7,10.4-16.1,15.6l-4.6-0.1c0,0,3.7-3.5,7.4-7c3.6-3.5,7.3-7,7.3-7s-2.5,0-6.2-0.1
				c-1.9,0-4-0.1-6.4-0.1c-1.2,0-2.4,0-3.6-0.1l-0.9,0l-0.5,0l-5.3-0.1c-4.9-0.2-9.9-0.5-14.8-0.7c-39.5-1.9-79.2-6.3-118.2-14
				c-19.5-4.1-38.9-8.4-57.9-14.1l-7.2-2.1l-3.6-1l-3.5-1.1l-14.2-4.6c-4.7-1.5-9.4-3.3-14-4.9l-7-2.5c-2.3-0.9-4.7-1.6-7-2.6
				c-9.2-3.7-18.4-7.2-27.4-11.3l-6.8-3c-2.3-1-4.5-2-6.7-3.1c-4.5-2.1-8.9-4.3-13.3-6.4c-4.5-2.1-8.8-4.4-13.2-6.7l-6.6-3.4
				l-3.3-1.7l-3.2-1.8c-4.3-2.4-8.6-4.8-12.9-7.2c-2.2-1.2-4.3-2.4-6.4-3.7l-6.3-3.8c-8.5-4.9-16.6-10.3-24.9-15.4
				c-4.1-2.7-8.1-5.4-12.1-8.1l-6.1-4.1l-5.9-4.2c-4-2.8-7.9-5.6-11.9-8.4c-3.9-2.9-7.8-5.7-11.6-8.6c-3.9-2.8-7.7-5.8-11.5-8.7
				c-3.8-3-7.6-5.8-11.4-8.9c-3.7-3-7.5-6-11.2-9c-3.7-3-7.4-6.1-11-9.1c-7.4-6-14.5-12.3-21.7-18.5c-14.2-12.5-28.2-25-41.8-37.7
				c-27.3-25.3-53.6-50.8-79.5-75.5c-25.9-24.7-51.3-48.8-76.8-71.4c-25.5-22.6-50.9-43.9-76.5-63.1c-25.6-19.2-51.3-36.6-76.8-51.7
				c-25.5-15.1-50.9-28.1-75.7-38.9c-24.8-10.8-48.9-19.7-72-26.8C184.5,30.8,143,23,108.7,18.8c-34.4-4.4-61.6-5.3-80.2-6.1
				C9.9,12.4,0,12.3,0,12.3V9.1c0,0,9.9,0.1,28.6,0.4c18.6,0.9,46,1.7,80.5,6.2c34.5,4.2,76.2,12.1,122.6,26
				c23.1,7.2,47.4,16,72.3,26.9c24.9,10.9,50.4,23.9,76.1,39.1c25.7,15.2,51.5,32.6,77.1,51.9c25.7,19.3,51.2,40.7,76.7,63.3
				c25.5,22.6,51,46.8,76.9,71.5c25.9,24.8,52.1,50.2,79.4,75.5c13.6,12.7,27.6,25.2,41.8,37.6c7.2,6.1,14.3,12.4,21.6,18.4
				c3.7,3,7.3,6.1,11,9.1c3.7,3,7.4,6,11.2,9c3.7,3,7.5,5.9,11.3,8.8c3.8,2.9,7.6,5.9,11.5,8.7c3.9,2.9,7.7,5.7,11.6,8.6
				c3.9,2.8,7.9,5.6,11.8,8.4l5.9,4.2l6,4c4,2.7,8,5.4,12.1,8.1c8.2,5.2,16.4,10.5,24.8,15.4l6.3,3.7c2.1,1.3,4.2,2.5,6.3,3.7
				c4.3,2.4,8.5,4.8,12.8,7.1l3.2,1.8l3.3,1.7l6.5,3.4c4.4,2.2,8.7,4.6,13.1,6.6c4.4,2.1,8.9,4.2,13.3,6.4c2.2,1.1,4.5,2,6.7,3
				l6.8,3c8.9,4.1,18.2,7.6,27.3,11.3c2.3,1,4.6,1.7,6.9,2.6l7,2.5c4.6,1.7,9.2,3.4,14,4.9l14.1,4.6l3.5,1.1l3.6,1l7.1,2
				c19,5.6,38.3,10,57.7,14c38.9,7.7,78.3,12.1,117.7,13.9c4.9,0.2,9.9,0.5,14.8,0.7l5.2,0.1l0.5,0l0.9,0c1.2,0,2.4,0,3.6,0.1
				c2.3,0,4.5,0.1,6.3,0.1c3.7,0.1,6.2,0.1,6.2,0.1s-3.5-3.6-7-7.2c-3.5-3.6-6.9-7.2-6.9-7.2l4.4,0.1
				C1240.9,600.6,1246.1,606,1251.4,611.3z"/>
		</g>
	</g>
</g>
</svg>
