<?xml version="1.0" encoding="utf-8"?>
<!-- Generator: Adobe Illustrator 19.1.0, SVG Export Plug-In . SVG Version: 6.00 Build 0)  -->
<svg version="1.1" id="Layer_1" xmlns="http://www.w3.org/2000/svg" xmlns:xlink="http://www.w3.org/1999/xlink" x="0px" y="0px"
	 viewBox="0 0 1033.3 640" style="enable-background:new 0 0 1033.3 640;" xml:space="preserve">
<style type="text/css">
	.st0{clip-path:url(#SVGID_2_);}
	.st1{clip-path:url(#SVGID_4_);}
	.st2{fill:none;stroke:#000000;stroke-miterlimit:10;}
	.st3{fill:none;stroke:#231F20;stroke-miterlimit:10;}
	.st4{stroke:#231F20;stroke-width:0.5;stroke-miterlimit:10;}
	.st5{clip-path:url(#SVGID_6_);}
	.st6{fill:none;stroke:#231F20;stroke-width:0.5;stroke-miterlimit:10;}
	.st7{fill:#202020;}
	.st8{clip-path:url(#SVGID_8_);}
	.st9{stroke:#000000;stroke-miterlimit:10;}
	.st10{clip-path:url(#SVGID_10_);}
	.st11{fill:none;stroke:#000000;}
	.st12{clip-path:url(#SVGID_12_);}
	.st13{clip-path:url(#SVGID_14_);}
	.st14{clip-path:url(#SVGID_16_);}
	.st15{clip-path:url(#SVGID_18_);}
</style>
<g>
	<defs>
		<rect id="SVGID_9_" x="-1234" y="257" width="1033.3" height="640"/>
	</defs>
	<clipPath id="SVGID_2_">
		<use xlink:href="#SVGID_9_"  style="overflow:visible;"/>
	</clipPath>
	<g class="st0">
		<g>
			<polyline class="st2" points="0,-137.4 172.2,62.6 344.4,-137.4 516.6,62.6 688.9,-137.4 861.1,62.6 1033.3,-137.4 			"/>
		</g>
		<g>
			<polyline class="st2" points="0,6.2 172.2,206.2 344.4,6.2 516.6,206.2 688.9,6.2 861.1,206.2 1033.3,6.2 			"/>
		</g>
		<g>
			<polyline class="st2" points="0,149.8 172.2,349.8 344.4,149.8 516.6,349.8 688.9,149.8 861.1,349.8 1033.3,149.8 			"/>
		</g>
		<g>
			<polyline class="st2" points="0,293.4 172.2,493.4 344.4,293.4 516.6,493.4 688.9,293.4 861.1,493.4 1033.3,293.4 			"/>
		</g>
		<g>
			<polyline class="st2" points="0,436.9 172.2,636.9 344.4,436.9 516.6,636.9 688.9,436.9 861.1,636.9 1033.3,436.9 			"/>
		</g>
		<g>
			<polyline class="st2" points="0,580.5 172.2,780.5 344.4,580.5 516.6,780.5 688.9,580.5 861.1,780.5 1033.3,580.5 			"/>
		</g>
	</g>
</g>
<polygon class="st2" points="410.8,186.3 642.4,320 410.8,453.7 "/>
</svg>
