<?xml version="1.0" encoding="utf-8"?>
<!-- Generator: Adobe Illustrator 19.1.0, SVG Export Plug-In . SVG Version: 6.00 Build 0)  -->
<svg version="1.1" id="Layer_1" xmlns="http://www.w3.org/2000/svg" xmlns:xlink="http://www.w3.org/1999/xlink" x="0px" y="0px"
	 viewBox="0 0 727 851.8" style="enable-background:new 0 0 727 851.8;" xml:space="preserve">
<style type="text/css">
	.st0{clip-path:url(#SVGID_2_);}
	.st1{clip-path:url(#SVGID_4_);}
	.st2{fill:none;stroke:#000000;stroke-miterlimit:10;}
	.st3{fill:none;stroke:#231F20;stroke-miterlimit:10;}
	.st4{stroke:#231F20;stroke-width:0.5;stroke-miterlimit:10;}
	.st5{clip-path:url(#SVGID_6_);}
	.st6{fill:none;stroke:#231F20;stroke-width:0.5;stroke-miterlimit:10;}
	.st7{fill:#202020;}
	.st8{clip-path:url(#SVGID_8_);}
	.st9{stroke:#000000;stroke-miterlimit:10;}
	.st10{clip-path:url(#SVGID_10_);}
	.st11{fill:none;stroke:#000000;}
	.st12{clip-path:url(#SVGID_12_);}
	.st13{clip-path:url(#SVGID_14_);}
	.st14{clip-path:url(#SVGID_16_);}
	.st15{clip-path:url(#SVGID_18_);}
</style>
<g>
	<path class="st2" d="M488.8,151.1c0,0,47.2-37.4,101-37.4s101,37.4,101,37.4s-47.2,37.2-101,37.2S488.8,151.1,488.8,151.1z"/>
	<circle class="st2" cx="642.9" cy="151" r="24"/>
</g>
<g>
	<path class="st2" d="M257.1,151.1c0,0,47.2-37.4,101-37.4s101,37.4,101,37.4s-47.2,37.2-101,37.2S257.1,151.1,257.1,151.1z"/>
	<circle class="st2" cx="411.3" cy="151" r="24"/>
</g>
<path class="st2" d="M488.8,151v155v0c0,23.7-19.1,43-42.9,43s-43.1-19.3-43.1-43"/>
</svg>
