<?xml version="1.0" encoding="utf-8"?>
<!-- Generator: Adobe Illustrator 19.1.0, SVG Export Plug-In . SVG Version: 6.00 Build 0)  -->
<svg version="1.1" id="Layer_1" xmlns="http://www.w3.org/2000/svg" xmlns:xlink="http://www.w3.org/1999/xlink" x="0px" y="0px"
	 viewBox="0 0 814.4 745.8" style="enable-background:new 0 0 814.4 745.8;" xml:space="preserve">
<style type="text/css">
	.st0{clip-path:url(#SVGID_2_);}
	.st1{clip-path:url(#SVGID_4_);}
	.st2{fill:none;stroke:#000000;stroke-miterlimit:10;}
	.st3{fill:none;stroke:#231F20;stroke-miterlimit:10;}
	.st4{stroke:#231F20;stroke-width:0.5;stroke-miterlimit:10;}
	.st5{clip-path:url(#SVGID_6_);}
	.st6{fill:none;stroke:#231F20;stroke-width:0.5;stroke-miterlimit:10;}
	.st7{fill:#202020;}
	.st8{clip-path:url(#SVGID_8_);}
	.st9{stroke:#000000;stroke-miterlimit:10;}
	.st10{clip-path:url(#SVGID_10_);}
	.st11{fill:none;stroke:#000000;}
	.st12{clip-path:url(#SVGID_12_);}
	.st13{clip-path:url(#SVGID_14_);}
	.st14{clip-path:url(#SVGID_16_);}
	.st15{clip-path:url(#SVGID_18_);}
</style>
<g>
	<defs>
		<rect id="SVGID_11_" x="-0.3" width="814.7" height="746.3"/>
	</defs>
	<clipPath id="SVGID_2_">
		<use xlink:href="#SVGID_11_"  style="overflow:visible;"/>
	</clipPath>
	<g class="st0">
		<g>
			<polyline class="st3" points="178,443.3 196.6,473.3 215.2,443.3 233.9,473.3 252.5,443.3 271.1,473.3 289.8,443.3 308.4,473.3 
				327,443.3 345.6,473.3 364.3,443.3 382.9,473.3 401.5,443.3 420.1,473.3 438.8,443.3 457.4,473.3 476,443.3 494.6,473.3 
				513.3,443.3 531.9,473.3 550.5,443.3 569.2,473.3 587.8,443.3 606.4,473.3 625,443.3 643.7,473.3 662.3,443.3 680.9,473.3 
				699.6,443.3 718.2,473.3 736.8,443.3 755.4,473.3 774.1,443.3 792.7,473.3 811.3,443.3 830,473.3 			"/>
		</g>
		<polygon class="st3" points="338.9,163.9 2.7,746.3 188.7,746.3 431.9,325 		"/>
		<polygon class="st3" points="188.7,746.3 596.9,39.2 1005.1,746.3 		"/>
	</g>
</g>
</svg>
