<?xml version="1.0" encoding="utf-8"?>
<!-- Generator: Adobe Illustrator 19.1.0, SVG Export Plug-In . SVG Version: 6.00 Build 0)  -->
<svg version="1.1" id="Layer_1" xmlns="http://www.w3.org/2000/svg" xmlns:xlink="http://www.w3.org/1999/xlink" x="0px" y="0px"
	 viewBox="0 0 640 640" style="enable-background:new 0 0 640 640;" xml:space="preserve">
<style type="text/css">
	.st0{fill:none;stroke:#000000;stroke-miterlimit:10;}
	.st1{fill:none;stroke:#231F20;stroke-miterlimit:10;}
	.st2{stroke:#231F20;stroke-width:0.5;stroke-miterlimit:10;}
	.st3{clip-path:url(#SVGID_2_);}
	.st4{fill:none;stroke:#231F20;stroke-width:0.5;stroke-miterlimit:10;}
	.st5{fill:#202020;}
	.st6{clip-path:url(#SVGID_4_);}
	.st7{stroke:#000000;stroke-miterlimit:10;}
	.st8{clip-path:url(#SVGID_6_);}
	.st9{fill:none;stroke:#000000;}
	.st10{clip-path:url(#SVGID_8_);}
	.st11{clip-path:url(#SVGID_10_);}
</style>
<g>
	<path d="M639,1v638H1V1H639 M640,0H0v640h640V0L640,0z"/>
</g>
<g>
	<path class="st1" d="M143.2,141.2c98.7-98.7,258.8-98.7,357.5,0c98.7,98.7,98.7,258.8,0,357.5c-98.7,98.7-258.8,98.7-357.5,0
		C44.4,400,44.4,240,143.2,141.2z"/>
	<path class="st1" d="M421.3,419.3c54.8-54.9,54.8-143.8,0-198.6c-54.8-54.8-143.8-54.8-198.6,0c-54.8,54.9-54.8,143.8,0,198.6
		C277.5,474.2,366.4,474.2,421.3,419.3z"/>
	<path class="st2" d="M341.8,339.9c11-11,11-28.8,0-39.7c-11-11-28.8-11-39.7,0c-11,11-11,28.8,0,39.7
		C313,350.8,330.8,350.8,341.8,339.9z"/>
	<g>
		<defs>
			<path id="SVGID_1_" d="M143.2,141.2c98.7-98.7,258.8-98.7,357.5,0c98.7,98.7,98.7,258.8,0,357.5c-98.7,98.7-258.8,98.7-357.5,0
				C44.4,400,44.4,240,143.2,141.2z"/>
		</defs>
		<clipPath id="SVGID_2_">
			<use xlink:href="#SVGID_1_"  style="overflow:visible;"/>
		</clipPath>
		<g class="st3">
			<g>
				<line class="st1" x1="-28.3" y1="38.3" x2="672.2" y2="601.7"/>
				<line class="st1" x1="-28.3" y1="38.3" x2="672.2" y2="601.7"/>
				<line class="st1" x1="-28.3" y1="38.3" x2="672.2" y2="601.7"/>
				<line class="st1" x1="-28.3" y1="38.3" x2="672.2" y2="601.7"/>
				<line class="st1" x1="-28.3" y1="38.3" x2="672.2" y2="601.7"/>
				<line class="st1" x1="-28.3" y1="38.3" x2="672.2" y2="601.7"/>
				<line class="st1" x1="-14.4" y1="24.5" x2="658.3" y2="615.6"/>
				<line class="st1" x1="-0.5" y1="10.6" x2="644.4" y2="629.4"/>
				<line class="st1" x1="13.4" y1="-3.3" x2="630.5" y2="643.3"/>
				<line class="st1" x1="27.3" y1="-17.1" x2="616.6" y2="657.1"/>
				<line class="st1" x1="41.2" y1="-31" x2="602.7" y2="671"/>
			</g>
			<g>
				<line class="st1" x1="603.6" y1="-30.2" x2="40.2" y2="670.2"/>
				<line class="st1" x1="603.6" y1="-30.2" x2="40.2" y2="670.2"/>
				<line class="st1" x1="603.6" y1="-30.2" x2="40.2" y2="670.2"/>
				<line class="st1" x1="603.6" y1="-30.2" x2="40.2" y2="670.2"/>
				<line class="st1" x1="603.6" y1="-30.2" x2="40.2" y2="670.2"/>
				<line class="st1" x1="603.6" y1="-30.2" x2="40.2" y2="670.2"/>
				<line class="st1" x1="617.5" y1="-16.3" x2="26.4" y2="656.3"/>
				<line class="st1" x1="631.3" y1="-2.4" x2="12.5" y2="642.4"/>
				<line class="st1" x1="645.2" y1="11.5" x2="-1.3" y2="628.6"/>
				<line class="st1" x1="659" y1="25.3" x2="-15.2" y2="614.7"/>
				<line class="st1" x1="672.9" y1="39.2" x2="-29" y2="600.8"/>
			</g>
		</g>
	</g>
</g>
</svg>
