<?xml version="1.0" encoding="utf-8"?>
<!-- Generator: Adobe Illustrator 19.1.0, SVG Export Plug-In . SVG Version: 6.00 Build 0)  -->
<svg version="1.1" id="Layer_1" xmlns="http://www.w3.org/2000/svg" xmlns:xlink="http://www.w3.org/1999/xlink" x="0px" y="0px"
	 viewBox="0 0 1183.2 924.7" style="enable-background:new 0 0 1183.2 924.7;" xml:space="preserve">
<style type="text/css">
	.st0{fill:none;stroke:#000000;stroke-miterlimit:10;}
	.st1{fill:none;stroke:#231F20;stroke-miterlimit:10;}
	.st2{stroke:#231F20;stroke-width:0.5;stroke-miterlimit:10;}
	.st3{clip-path:url(#SVGID_2_);}
	.st4{fill:none;stroke:#231F20;stroke-width:0.5;stroke-miterlimit:10;}
	.st5{fill:#202020;}
	.st6{clip-path:url(#SVGID_4_);}
	.st7{stroke:#000000;stroke-miterlimit:10;}
	.st8{clip-path:url(#SVGID_6_);}
	.st9{fill:none;stroke:#000000;}
	.st10{clip-path:url(#SVGID_8_);}
	.st11{clip-path:url(#SVGID_10_);}
</style>
<g>
	<line class="st0" x1="-0.4" y1="0.2" x2="1183.6" y2="0.2"/>
	<line class="st0" x1="-0.4" y1="62.2" x2="1183.6" y2="62.2"/>
	<line class="st0" x1="-0.4" y1="124.2" x2="1183.6" y2="124.2"/>
	<line class="st0" x1="-0.4" y1="187.2" x2="1183.6" y2="187.2"/>
	<line class="st0" x1="-0.4" y1="249.2" x2="1183.6" y2="249.2"/>
	<line class="st0" x1="-0.4" y1="311.2" x2="1183.6" y2="311.2"/>
	<line class="st0" x1="-0.4" y1="373.2" x2="1183.6" y2="373.2"/>
	<line class="st0" x1="-0.4" y1="436.2" x2="1183.6" y2="436.2"/>
	<line class="st0" x1="-0.4" y1="498.2" x2="1183.6" y2="498.2"/>
	<line class="st0" x1="-0.4" y1="560.2" x2="1183.6" y2="560.2"/>
	<line class="st0" x1="-0.4" y1="622.2" x2="1183.6" y2="622.2"/>
	<line class="st0" x1="-0.4" y1="685.2" x2="1183.6" y2="685.2"/>
	<line class="st0" x1="-0.4" y1="747.2" x2="1183.6" y2="747.2"/>
	<line class="st0" x1="-0.4" y1="809.2" x2="1183.6" y2="809.2"/>
	<line class="st0" x1="-0.4" y1="871.2" x2="1183.6" y2="871.2"/>
</g>
</svg>
