<?xml version="1.0" encoding="utf-8"?>
<!-- Generator: Adobe Illustrator 19.1.0, SVG Export Plug-In . SVG Version: 6.00 Build 0)  -->
<svg version="1.1" id="Layer_1" xmlns="http://www.w3.org/2000/svg" xmlns:xlink="http://www.w3.org/1999/xlink" x="0px" y="0px"
	 viewBox="0 0 1024 768" style="enable-background:new 0 0 1024 768;" xml:space="preserve">
<style type="text/css">
	.st0{fill:none;stroke:#000000;stroke-miterlimit:10;}
	.st1{fill:none;stroke:#231F20;stroke-miterlimit:10;}
	.st2{stroke:#231F20;stroke-width:0.5;stroke-miterlimit:10;}
	.st3{clip-path:url(#SVGID_2_);}
	.st4{fill:none;stroke:#231F20;stroke-width:0.5;stroke-miterlimit:10;}
	.st5{fill:#202020;}
	.st6{clip-path:url(#SVGID_4_);}
	.st7{stroke:#000000;stroke-miterlimit:10;}
	.st8{clip-path:url(#SVGID_6_);}
	.st9{fill:none;stroke:#000000;}
	.st10{clip-path:url(#SVGID_8_);}
	.st11{clip-path:url(#SVGID_10_);}
</style>
<path class="st0" d="M2.6,663.5c35.1,3.3,69.7-9.1,102.6-21.7c96-36.8,192.2-77.6,272-142.3S519.6,342.2,527,239.7
	c2-26.9-0.1-54.9-12.1-79.1c-16.4-33-51.8-55.6-88.6-56.7s-73.5,19.4-91.9,51.3c-5.2,9.1-9,18.9-12.4,28.8
	c-19.1,56.9-22.4,121,1.9,175.9c26.5,59.8,81.8,101.6,138.5,134.1c86.6,49.8,183.6,84.7,283.5,87.3c99.9,2.6,202.7-29.5,274.6-98.9"
	/>
</svg>
