<?xml version="1.0" encoding="utf-8"?>
<!-- Generator: Adobe Illustrator 19.1.0, SVG Export Plug-In . SVG Version: 6.00 Build 0)  -->
<svg version="1.1" id="Layer_1" xmlns="http://www.w3.org/2000/svg" xmlns:xlink="http://www.w3.org/1999/xlink" x="0px" y="0px"
	 viewBox="0 0 640 1280" style="enable-background:new 0 0 640 1280;" xml:space="preserve">
<style type="text/css">
	.st0{fill:none;stroke:#000000;stroke-miterlimit:10;}
	.st1{fill:none;stroke:#231F20;stroke-miterlimit:10;}
	.st2{stroke:#231F20;stroke-width:0.5;stroke-miterlimit:10;}
	.st3{clip-path:url(#SVGID_2_);}
	.st4{fill:none;stroke:#231F20;stroke-width:0.5;stroke-miterlimit:10;}
	.st5{fill:#202020;}
	.st6{clip-path:url(#SVGID_4_);}
	.st7{stroke:#000000;stroke-miterlimit:10;}
	.st8{clip-path:url(#SVGID_6_);}
	.st9{fill:none;stroke:#000000;}
	.st10{clip-path:url(#SVGID_8_);}
	.st11{clip-path:url(#SVGID_10_);}
</style>
<g>
	<line class="st7" x1="609" y1="1219.5" x2="31" y2="1219.5"/>
	<line class="st7" x1="579" y1="1158.5" x2="61" y2="1158.5"/>
	<line class="st7" x1="548" y1="1097.5" x2="92" y2="1097.5"/>
	<line class="st7" x1="518" y1="1036.5" x2="122" y2="1036.5"/>
	<line class="st7" x1="487" y1="975.5" x2="153" y2="975.5"/>
	<line class="st7" x1="457" y1="914.5" x2="183" y2="914.5"/>
	<line class="st7" x1="426" y1="853.5" x2="214" y2="853.5"/>
	<line class="st7" x1="396" y1="792.5" x2="244" y2="792.5"/>
	<line class="st7" x1="366" y1="731.5" x2="274" y2="731.5"/>
	<line class="st7" x1="335" y1="670.5" x2="305" y2="670.5"/>
	<line class="st7" x1="305" y1="609.5" x2="335" y2="609.5"/>
	<line class="st7" x1="274" y1="548.5" x2="366" y2="548.5"/>
	<line class="st7" x1="244" y1="487.5" x2="396" y2="487.5"/>
	<line class="st7" x1="214" y1="426.5" x2="426" y2="426.5"/>
	<line class="st7" x1="183" y1="365.5" x2="457" y2="365.5"/>
	<line class="st7" x1="153" y1="304.5" x2="487" y2="304.5"/>
	<line class="st7" x1="122" y1="243.5" x2="518" y2="243.5"/>
	<line class="st7" x1="92" y1="182.5" x2="548" y2="182.5"/>
	<line class="st7" x1="61" y1="121.5" x2="579" y2="121.5"/>
	<line class="st7" x1="31" y1="60.5" x2="609" y2="60.5"/>
	<line class="st7" x1="0" y1="0.5" x2="639" y2="0.5"/>
</g>
</svg>
