<?xml version="1.0" encoding="utf-8"?>
<!-- Generator: Adobe Illustrator 19.1.0, SVG Export Plug-In . SVG Version: 6.00 Build 0)  -->
<svg version="1.1" id="Layer_1" xmlns="http://www.w3.org/2000/svg" xmlns:xlink="http://www.w3.org/1999/xlink" x="0px" y="0px"
	 viewBox="0 0 1661.5 813.3" style="enable-background:new 0 0 1661.5 813.3;" xml:space="preserve">
<style type="text/css">
	.st0{clip-path:url(#SVGID_2_);}
	.st1{clip-path:url(#SVGID_4_);}
	.st2{fill:none;stroke:#000000;stroke-miterlimit:10;}
	.st3{fill:none;stroke:#231F20;stroke-miterlimit:10;}
	.st4{stroke:#231F20;stroke-width:0.5;stroke-miterlimit:10;}
	.st5{clip-path:url(#SVGID_6_);}
	.st6{fill:none;stroke:#231F20;stroke-width:0.5;stroke-miterlimit:10;}
	.st7{fill:#202020;}
	.st8{clip-path:url(#SVGID_8_);}
	.st9{stroke:#000000;stroke-miterlimit:10;}
	.st10{clip-path:url(#SVGID_10_);}
	.st11{fill:none;stroke:#000000;}
	.st12{clip-path:url(#SVGID_12_);}
	.st13{clip-path:url(#SVGID_14_);}
	.st14{clip-path:url(#SVGID_16_);}
	.st15{clip-path:url(#SVGID_18_);}
</style>
<g>
	<path class="st11" d="M743,484.1c-0.6,47.4,29.5,76.8,68.5,84.5V434.8c-4.5-1.9-12.2-3.8-20.5-5.8c-64-17.3-128-42.3-128-127.4
		c0-87.7,71.7-132.5,148.5-137v-49.3h37.8v49.3c76.2,8.3,138.9,48,144.1,136.4h-90.9c-0.6-33.9-24.3-61.5-53.1-61.5v113.3
		c10.2,2.6,21.1,5.1,32.7,8.3c124.8,34.6,127.4,105.6,127.4,148.5c0,36.5-32.7,125.5-160.1,133.8V698h-37.8v-54.4
		c-94.8-7-149.8-58.9-159.4-159.4H743z M811.5,239.6c-28.8,0-57.6,17.9-57.6,53.1c0,28.2,16.6,41.6,57.6,51.2V239.6z M849.3,568.6
		c31.4-3.2,69.1-21.8,69.1-62.7c0-33.9-18.6-46.1-69.1-60.2V568.6z"/>
</g>
</svg>
