<?xml version="1.0" encoding="utf-8"?>
<!-- Generator: Adobe Illustrator 19.1.0, SVG Export Plug-In . SVG Version: 6.00 Build 0)  -->
<svg version="1.1" id="Layer_1" xmlns="http://www.w3.org/2000/svg" xmlns:xlink="http://www.w3.org/1999/xlink" x="0px" y="0px"
	 viewBox="0 0 1024 768" style="enable-background:new 0 0 1024 768;" xml:space="preserve">
<style type="text/css">
	.st0{fill:none;stroke:#000000;stroke-miterlimit:10;}
	.st1{fill:none;stroke:#231F20;stroke-miterlimit:10;}
	.st2{stroke:#231F20;stroke-width:0.5;stroke-miterlimit:10;}
	.st3{clip-path:url(#SVGID_2_);}
	.st4{fill:none;stroke:#231F20;stroke-width:0.5;stroke-miterlimit:10;}
	.st5{fill:#202020;}
	.st6{clip-path:url(#SVGID_4_);}
	.st7{stroke:#000000;stroke-miterlimit:10;}
	.st8{clip-path:url(#SVGID_6_);}
	.st9{fill:none;stroke:#000000;}
	.st10{clip-path:url(#SVGID_8_);}
	.st11{clip-path:url(#SVGID_10_);}
</style>
<polygon class="st0" points="68.6,118 103.6,120.9 96.6,86.5 130,97.4 131.1,62.3 161,80.6 170.2,46.7 195.1,71.4 211.9,40.5 
	230.4,70.4 253.9,44.2 265,77.5 293.9,57.4 297.1,92.4 329.7,79.5 324.8,114.3 359.6,109.2 346.7,141.9 381.7,145.1 361.7,173.9 
	395,185 368.8,208.5 398.7,227 367.8,243.8 392.6,268.7 358.7,277.9 377.1,307.9 342,309 353,342.4 318.6,335.4 321.5,370.4 
	289.6,355.7 284.5,390.5 256.8,368.8 243.8,401.4 221.9,373.9 201.7,402.7 186.7,370.9 160.4,394.2 153.2,359.8 122.2,376.4 
	123.1,341.3 89.2,350.3 98.1,316.4 63,317.3 79.5,286.3 45.1,279.1 68.4,252.8 36.6,237.9 65.3,217.6 37.8,195.8 70.4,182.7 
	48.6,155.1 83.4,149.9 "/>
<rect x="433.7" y="166.5" class="st0" width="554.1" height="38.4"/>
<rect x="433.7" y="238.3" class="st0" width="554.1" height="38.4"/>
<g>
	<line class="st0" x1="434" y1="329.5" x2="711" y2="329.5"/>
	<line class="st0" x1="434" y1="393.5" x2="711" y2="393.5"/>
	<line class="st0" x1="434" y1="456.5" x2="711" y2="456.5"/>
	<line class="st0" x1="434" y1="520.5" x2="711" y2="520.5"/>
</g>
<line class="st0" x1="434" y1="711.5" x2="810" y2="711.5"/>
</svg>
