<?xml version="1.0" encoding="utf-8"?>
<!-- Generator: Adobe Illustrator 19.1.0, SVG Export Plug-In . SVG Version: 6.00 Build 0)  -->
<svg version="1.1" id="Layer_1" xmlns="http://www.w3.org/2000/svg" xmlns:xlink="http://www.w3.org/1999/xlink" x="0px" y="0px"
	 viewBox="0 0 1302.5 1809.6" style="enable-background:new 0 0 1302.5 1809.6;" xml:space="preserve">
<style type="text/css">
	.st0{clip-path:url(#SVGID_2_);}
	.st1{clip-path:url(#SVGID_4_);}
	.st2{fill:none;stroke:#000000;stroke-miterlimit:10;}
	.st3{fill:none;stroke:#231F20;stroke-miterlimit:10;}
	.st4{stroke:#231F20;stroke-width:0.5;stroke-miterlimit:10;}
	.st5{clip-path:url(#SVGID_6_);}
	.st6{fill:none;stroke:#231F20;stroke-width:0.5;stroke-miterlimit:10;}
	.st7{fill:#202020;}
	.st8{clip-path:url(#SVGID_8_);}
	.st9{stroke:#000000;stroke-miterlimit:10;}
	.st10{clip-path:url(#SVGID_10_);}
	.st11{fill:none;stroke:#000000;}
	.st12{clip-path:url(#SVGID_12_);}
	.st13{clip-path:url(#SVGID_14_);}
	.st14{clip-path:url(#SVGID_16_);}
	.st15{clip-path:url(#SVGID_18_);}
</style>
<g>
	<line class="st2" x1="0.2" y1="-0.4" x2="1302.2" y2="-0.4"/>
	<line class="st2" x1="0.2" y1="64.6" x2="1302.2" y2="64.6"/>
	<line class="st2" x1="0.2" y1="129.6" x2="1302.2" y2="129.6"/>
	<line class="st2" x1="0.2" y1="193.6" x2="1302.2" y2="193.6"/>
	<line class="st2" x1="0.2" y1="258.6" x2="1302.2" y2="258.6"/>
	<line class="st2" x1="0.2" y1="323.6" x2="1302.2" y2="323.6"/>
	<line class="st2" x1="0.2" y1="387.6" x2="1302.2" y2="387.6"/>
	<line class="st2" x1="0.2" y1="452.6" x2="1302.2" y2="452.6"/>
	<line class="st2" x1="0.2" y1="516.6" x2="1302.2" y2="516.6"/>
	<line class="st2" x1="0.2" y1="581.6" x2="1302.2" y2="581.6"/>
	<line class="st2" x1="0.2" y1="646.6" x2="1302.2" y2="646.6"/>
	<line class="st2" x1="0.2" y1="710.6" x2="1302.2" y2="710.6"/>
	<line class="st2" x1="0.2" y1="775.6" x2="1302.2" y2="775.6"/>
	<line class="st2" x1="0.2" y1="840.6" x2="1302.2" y2="840.6"/>
	<line class="st2" x1="0.2" y1="904.6" x2="1302.2" y2="904.6"/>
	<line class="st2" x1="0.2" y1="969.6" x2="1302.2" y2="969.6"/>
	<line class="st2" x1="0.2" y1="1033.6" x2="1302.2" y2="1033.6"/>
	<line class="st2" x1="0.2" y1="1098.6" x2="1302.2" y2="1098.6"/>
	<line class="st2" x1="0.2" y1="1163.6" x2="1302.2" y2="1163.6"/>
	<line class="st2" x1="0.2" y1="1227.6" x2="1302.2" y2="1227.6"/>
	<line class="st2" x1="0.2" y1="1292.6" x2="1302.2" y2="1292.6"/>
	<line class="st2" x1="0.2" y1="1357.6" x2="1302.2" y2="1357.6"/>
	<line class="st2" x1="0.2" y1="1421.6" x2="1302.2" y2="1421.6"/>
	<line class="st2" x1="0.2" y1="1486.6" x2="1302.2" y2="1486.6"/>
	<line class="st2" x1="0.2" y1="1550.6" x2="1302.2" y2="1550.6"/>
	<line class="st2" x1="0.2" y1="1615.6" x2="1302.2" y2="1615.6"/>
	<line class="st2" x1="0.2" y1="1680.6" x2="1302.2" y2="1680.6"/>
	<line class="st2" x1="0.2" y1="1744.6" x2="1302.2" y2="1744.6"/>
	<line class="st2" x1="0.2" y1="1809.6" x2="1302.2" y2="1809.6"/>
</g>
</svg>
