<?xml version="1.0" encoding="utf-8"?>
<!-- Generator: Adobe Illustrator 19.1.0, SVG Export Plug-In . SVG Version: 6.00 Build 0)  -->
<svg version="1.1" id="Layer_1" xmlns="http://www.w3.org/2000/svg" xmlns:xlink="http://www.w3.org/1999/xlink" x="0px" y="0px"
	 viewBox="0 0 1280 640" style="enable-background:new 0 0 1280 640;" xml:space="preserve">
<style type="text/css">
	.st0{clip-path:url(#SVGID_2_);}
	.st1{clip-path:url(#SVGID_4_);}
	.st2{fill:none;stroke:#000000;stroke-miterlimit:10;}
	.st3{fill:none;stroke:#231F20;stroke-miterlimit:10;}
	.st4{stroke:#231F20;stroke-width:0.5;stroke-miterlimit:10;}
	.st5{clip-path:url(#SVGID_6_);}
	.st6{fill:none;stroke:#231F20;stroke-width:0.5;stroke-miterlimit:10;}
	.st7{fill:#202020;}
	.st8{clip-path:url(#SVGID_8_);}
	.st9{stroke:#000000;stroke-miterlimit:10;}
	.st10{clip-path:url(#SVGID_10_);}
	.st11{fill:none;stroke:#000000;}
	.st12{clip-path:url(#SVGID_12_);}
	.st13{clip-path:url(#SVGID_14_);}
	.st14{clip-path:url(#SVGID_16_);}
	.st15{clip-path:url(#SVGID_18_);}
</style>
<g>
	<defs>
		<rect id="SVGID_7_" x="0.1" width="1279.9" height="639.4"/>
	</defs>
	<clipPath id="SVGID_2_">
		<use xlink:href="#SVGID_7_"  style="overflow:visible;"/>
	</clipPath>
	<g class="st0">
		<line class="st2" x1="0.5" y1="639" x2="0.5" y2="-800"/>
		<line class="st2" x1="0.1" y1="639.4" x2="131" y2="-734.5"/>
		<line class="st2" x1="0" y1="639.5" x2="261.9" y2="-669"/>
		<line class="st2" x1="0" y1="639.5" x2="392.8" y2="-603.6"/>
		<line class="st2" x1="-0.1" y1="639.6" x2="523.7" y2="-538.1"/>
		<line class="st2" x1="-0.1" y1="639.6" x2="654.6" y2="-472.6"/>
		<line class="st2" x1="-0.2" y1="639.7" x2="785.5" y2="-407.1"/>
		<line class="st2" x1="-0.2" y1="639.7" x2="916.4" y2="-341.7"/>
		<line class="st2" x1="-0.3" y1="639.8" x2="1047.4" y2="-276.2"/>
		<line class="st2" x1="-0.3" y1="639.8" x2="1178.3" y2="-210.7"/>
		<line class="st2" x1="-0.4" y1="639.9" x2="1309.2" y2="-145.2"/>
		<line class="st2" x1="-0.4" y1="639.9" x2="1440.1" y2="-79.8"/>
		<line class="st2" x1="-0.5" y1="640" x2="1571" y2="-14.3"/>
		<line class="st2" x1="-0.5" y1="640" x2="1701.9" y2="51.2"/>
		<line class="st2" x1="-0.6" y1="640.1" x2="1832.8" y2="116.7"/>
		<line class="st2" x1="-0.6" y1="640.1" x2="1963.7" y2="182.2"/>
		<line class="st2" x1="-0.7" y1="640.2" x2="2094.6" y2="247.6"/>
		<line class="st2" x1="-0.7" y1="640.2" x2="2225.5" y2="313.1"/>
		<line class="st2" x1="-0.8" y1="640.3" x2="2356.4" y2="378.6"/>
		<line class="st2" x1="-0.8" y1="640.3" x2="2487.3" y2="444.1"/>
		<line class="st2" x1="-0.9" y1="640.4" x2="2618.2" y2="509.5"/>
		<line class="st2" x1="-0.9" y1="640.4" x2="2749.1" y2="575"/>
	</g>
</g>
</svg>
