<?xml version="1.0" encoding="utf-8"?>
<!-- Generator: Adobe Illustrator 19.1.0, SVG Export Plug-In . SVG Version: 6.00 Build 0)  -->
<svg version="1.1" id="Layer_1" xmlns="http://www.w3.org/2000/svg" xmlns:xlink="http://www.w3.org/1999/xlink" x="0px" y="0px"
	 viewBox="0 0 640 640" style="enable-background:new 0 0 640 640;" xml:space="preserve">
<style type="text/css">
	.st0{fill:none;stroke:#000000;stroke-miterlimit:10;}
	.st1{fill:none;stroke:#231F20;stroke-miterlimit:10;}
	.st2{stroke:#231F20;stroke-width:0.5;stroke-miterlimit:10;}
	.st3{clip-path:url(#SVGID_2_);}
	.st4{fill:none;stroke:#231F20;stroke-width:0.5;stroke-miterlimit:10;}
	.st5{fill:#202020;}
	.st6{clip-path:url(#SVGID_4_);}
	.st7{stroke:#000000;stroke-miterlimit:10;}
	.st8{clip-path:url(#SVGID_6_);}
	.st9{fill:none;stroke:#000000;}
	.st10{clip-path:url(#SVGID_8_);}
	.st11{clip-path:url(#SVGID_10_);}
</style>
<g>
	<line class="st1" x1="623.5" y1="0" x2="623.5" y2="320"/>
	<line class="st1" x1="579.5" y1="108.4" x2="579.5" y2="320"/>
	<line class="st1" x1="535.4" y1="150.7" x2="535.4" y2="320"/>
	<line class="st1" x1="491.4" y1="181.5" x2="491.4" y2="320"/>
	<line class="st1" x1="447.3" y1="206.2" x2="447.3" y2="320"/>
	<line class="st1" x1="403.3" y1="226.7" x2="403.3" y2="320"/>
	<line class="st1" x1="359.3" y1="244" x2="359.3" y2="320"/>
	<line class="st1" x1="315.2" y1="258.8" x2="315.2" y2="320"/>
	<line class="st1" x1="271.2" y1="271.5" x2="271.2" y2="320"/>
	<line class="st1" x1="227.1" y1="282.4" x2="227.1" y2="320"/>
	<line class="st1" x1="183.1" y1="291.7" x2="183.1" y2="320"/>
	<line class="st1" x1="139" y1="299.5" x2="139" y2="320"/>
	<line class="st1" x1="95" y1="305.9" x2="95" y2="320"/>
	<line class="st1" x1="51" y1="311.1" x2="51" y2="320"/>
	<line class="st1" x1="6.9" y1="315" x2="6.9" y2="320"/>
	<line class="st1" x1="623.5" y1="640" x2="623.5" y2="320"/>
	<line class="st1" x1="579.5" y1="531.6" x2="579.5" y2="320"/>
	<line class="st1" x1="535.4" y1="489.3" x2="535.4" y2="320"/>
	<line class="st1" x1="491.4" y1="458.5" x2="491.4" y2="320"/>
	<line class="st1" x1="447.3" y1="433.8" x2="447.3" y2="320"/>
	<line class="st1" x1="403.3" y1="413.3" x2="403.3" y2="320"/>
	<line class="st1" x1="359.3" y1="396" x2="359.3" y2="320"/>
	<line class="st1" x1="315.2" y1="381.2" x2="315.2" y2="320"/>
	<line class="st1" x1="271.2" y1="368.5" x2="271.2" y2="320"/>
	<line class="st1" x1="227.1" y1="357.6" x2="227.1" y2="320"/>
	<line class="st1" x1="183.1" y1="348.3" x2="183.1" y2="320"/>
	<line class="st1" x1="139" y1="340.5" x2="139" y2="320"/>
	<line class="st1" x1="95" y1="334.1" x2="95" y2="320"/>
	<line class="st1" x1="51" y1="328.9" x2="51" y2="320"/>
	<line class="st1" x1="6.9" y1="325" x2="6.9" y2="320"/>
</g>
</svg>
