<?xml version="1.0" encoding="utf-8"?>
<!-- Generator: Adobe Illustrator 19.1.0, SVG Export Plug-In . SVG Version: 6.00 Build 0)  -->
<svg version="1.1" id="Layer_1" xmlns="http://www.w3.org/2000/svg" xmlns:xlink="http://www.w3.org/1999/xlink" x="0px" y="0px"
	 viewBox="0 0 640 640" style="enable-background:new 0 0 640 640;" xml:space="preserve">
<style type="text/css">
	.st0{fill:none;stroke:#000000;stroke-miterlimit:10;}
	.st1{fill:none;stroke:#231F20;stroke-miterlimit:10;}
	.st2{stroke:#231F20;stroke-width:0.5;stroke-miterlimit:10;}
	.st3{clip-path:url(#SVGID_2_);}
	.st4{fill:none;stroke:#231F20;stroke-width:0.5;stroke-miterlimit:10;}
	.st5{fill:#202020;}
	.st6{clip-path:url(#SVGID_4_);}
	.st7{stroke:#000000;stroke-miterlimit:10;}
	.st8{clip-path:url(#SVGID_6_);}
	.st9{fill:none;stroke:#000000;}
	.st10{clip-path:url(#SVGID_8_);}
	.st11{clip-path:url(#SVGID_10_);}
</style>
<g>
	<g>
		<g>
			<path class="st5" d="M611.2,604.2c-5.3-5.4-10.4-10.7-15.5-16.1l-4.4-0.2c0,0,0.8,0.9,2.1,2.3c1.3,1.4,3,3.2,4.7,5
				c3.5,3.6,7,7.2,7,7.2s-2.5,0-6.2-0.1c-1.9,0-4,0-6.3-0.2c-1.2,0-2.4-0.1-3.6-0.1l-0.9,0l-0.5,0l-3.5-0.1
				c-3.2-0.1-6.5-0.3-9.7-0.5l-9.7-0.6l-9.7-0.9l-4.8-0.4c-1.6-0.2-3.2-0.4-4.8-0.5l-9.7-1.1c-12.9-1.7-25.7-3.6-38.5-6.1
				c-51.1-9.7-100.8-26.3-147-48.5c-11.5-5.6-22.9-11.4-33.9-17.7c-5.6-3-11-6.3-16.4-9.5c-2.7-1.6-5.4-3.3-8-5
				c-2.7-1.7-5.4-3.3-8-5c-21-13.7-41-28.4-59.7-44.1c-37.4-31.3-69.6-66.1-96.4-101.9c-26.7-35.9-48-72.6-64.3-108.1
				c-16.3-35.4-27.8-69.4-35.8-100.1c-3.9-15.4-7.1-29.8-9.6-43.3c-0.7-3.4-1.1-6.7-1.7-9.9c-0.5-3.2-1.1-6.4-1.5-9.5
				c-0.8-6.2-1.8-12.2-2.4-17.8c-0.3-2.8-0.6-5.6-0.9-8.2c-0.3-2.7-0.5-5.3-0.7-7.8c-0.5-5-0.9-9.8-1.1-14.2
				c-0.3-4.4-0.6-8.5-0.7-12.2C9.1,25.1,9,21.7,8.9,18.7c-0.1-3-0.1-5.7-0.2-8.1c0-2.3-0.1-4.3-0.1-5.9C8.6,1.6,8.6,0,8.6,0H5.4
				c0,0,0,1.6,0.1,4.8c0,1.6,0,3.5,0.1,5.9c0,2.3,0,5,0.2,8.1C5.8,21.8,6,25.3,6.1,29c0.1,3.8,0.5,7.9,0.7,12.3
				c0.2,4.4,0.7,9.2,1.1,14.3c0.2,2.5,0.4,5.2,0.7,7.8c0.3,2.7,0.6,5.5,0.9,8.3c0.6,5.7,1.5,11.6,2.4,17.9c0.4,3.1,1,6.3,1.5,9.6
				c0.6,3.3,1,6.6,1.7,10c2.5,13.6,5.7,28.1,9.6,43.6c8,30.8,19.6,65,36,100.6C77.2,289,98.6,326,125.4,362
				c26.9,36,59.3,71,96.9,102.5c18.7,15.8,38.9,30.6,60,44.3c2.6,1.8,5.3,3.4,8,5.1c2.7,1.7,5.4,3.4,8.1,5
				c5.5,3.2,10.9,6.5,16.5,9.6c11.1,6.3,22.5,12.1,34.1,17.8c46.4,22.2,96.4,39,147.8,48.7c12.8,2.5,25.8,4.4,38.7,6.1l9.7,1.1
				c1.6,0.2,3.2,0.4,4.9,0.5l4.9,0.4l9.7,0.9l9.7,0.6c3.2,0.2,6.5,0.4,9.7,0.5l3.5,0.1l0.5,0l0.9,0c1.2,0,2.4,0.1,3.6,0.1
				c2.3,0.1,4.5,0.1,6.4,0.2c3.7,0,6.2,0.1,6.2,0.1s-3.7,3.5-7.3,7c-1.8,1.8-3.7,3.5-5.1,4.8c-1.4,1.3-2.4,2.1-2.4,2.1l4.6,0.2
				C600.5,614.7,605.9,609.5,611.2,604.2z"/>
		</g>
	</g>
</g>
</svg>
