<?xml version="1.0" encoding="utf-8"?>
<!-- Generator: Adobe Illustrator 19.1.0, SVG Export Plug-In . SVG Version: 6.00 Build 0)  -->
<svg version="1.1" id="Layer_1" xmlns="http://www.w3.org/2000/svg" xmlns:xlink="http://www.w3.org/1999/xlink" x="0px" y="0px"
	 viewBox="0 0 1033.3 640" style="enable-background:new 0 0 1033.3 640;" xml:space="preserve">
<style type="text/css">
	.st0{fill:none;stroke:#000000;stroke-miterlimit:10;}
	.st1{fill:none;stroke:#231F20;stroke-miterlimit:10;}
	.st2{stroke:#231F20;stroke-width:0.5;stroke-miterlimit:10;}
	.st3{clip-path:url(#SVGID_2_);}
	.st4{fill:none;stroke:#231F20;stroke-width:0.5;stroke-miterlimit:10;}
	.st5{fill:#202020;}
	.st6{clip-path:url(#SVGID_4_);}
	.st7{stroke:#000000;stroke-miterlimit:10;}
	.st8{clip-path:url(#SVGID_6_);}
	.st9{fill:none;stroke:#000000;}
	.st10{clip-path:url(#SVGID_8_);}
	.st11{clip-path:url(#SVGID_10_);}
</style>
<g>
	<defs>
		<rect id="SVGID_5_" width="1033.3" height="640"/>
	</defs>
	<clipPath id="SVGID_2_">
		<use xlink:href="#SVGID_5_"  style="overflow:visible;"/>
	</clipPath>
	<g class="st3">
		<g>
			<path class="st0" d="M0-81.7c129.2,0,129.2,200,258.3,200c129.2,0,129.2-200,258.3-200c129.2,0,129.2,200,258.3,200
				s129.2-200,258.3-200"/>
		</g>
		<g>
			<path class="st0" d="M0,37.3c129.2,0,129.2,200,258.3,200c129.2,0,129.2-200,258.3-200c129.2,0,129.2,200,258.3,200
				s129.2-200,258.3-200"/>
		</g>
		<g>
			<path class="st0" d="M0,156.4c129.2,0,129.2,200,258.3,200c129.2,0,129.2-200,258.3-200c129.2,0,129.2,200,258.3,200
				s129.2-200,258.3-200"/>
		</g>
		<g>
			<path class="st0" d="M0,275.4c129.2,0,129.2,200,258.3,200c129.2,0,129.2-200,258.3-200c129.2,0,129.2,200,258.3,200
				s129.2-200,258.3-200"/>
		</g>
		<g>
			<path class="st0" d="M0,394.4c129.2,0,129.2,200,258.3,200c129.2,0,129.2-200,258.3-200c129.2,0,129.2,200,258.3,200
				s129.2-200,258.3-200"/>
		</g>
		<g>
			<path class="st0" d="M0,513.5c129.2,0,129.2,200,258.3,200c129.2,0,129.2-200,258.3-200c129.2,0,129.2,200,258.3,200
				s129.2-200,258.3-200"/>
		</g>
		<g>
			<path class="st0" d="M0,632.5c129.2,0,129.2,200,258.3,200c129.2,0,129.2-200,258.3-200c129.2,0,129.2,200,258.3,200
				s129.2-200,258.3-200"/>
		</g>
	</g>
</g>
</svg>
