<?xml version="1.0" encoding="utf-8"?>
<!-- Generator: Adobe Illustrator 19.1.0, SVG Export Plug-In . SVG Version: 6.00 Build 0)  -->
<svg version="1.1" id="Layer_1" xmlns="http://www.w3.org/2000/svg" xmlns:xlink="http://www.w3.org/1999/xlink" x="0px" y="0px"
	 viewBox="0 0 626.4 1183.2" style="enable-background:new 0 0 626.4 1183.2;" xml:space="preserve">
<style type="text/css">
	.st0{clip-path:url(#SVGID_2_);}
	.st1{clip-path:url(#SVGID_4_);}
	.st2{fill:none;stroke:#000000;stroke-miterlimit:10;}
	.st3{fill:none;stroke:#231F20;stroke-miterlimit:10;}
	.st4{stroke:#231F20;stroke-width:0.5;stroke-miterlimit:10;}
	.st5{clip-path:url(#SVGID_6_);}
	.st6{fill:none;stroke:#231F20;stroke-width:0.5;stroke-miterlimit:10;}
	.st7{fill:#202020;}
	.st8{clip-path:url(#SVGID_8_);}
	.st9{stroke:#000000;stroke-miterlimit:10;}
	.st10{clip-path:url(#SVGID_10_);}
	.st11{fill:none;stroke:#000000;}
	.st12{clip-path:url(#SVGID_12_);}
	.st13{clip-path:url(#SVGID_14_);}
	.st14{clip-path:url(#SVGID_16_);}
	.st15{clip-path:url(#SVGID_18_);}
</style>
<g>
	<line class="st2" x1="0.2" y1="0.2" x2="626.2" y2="0.2"/>
	<line class="st2" x1="0.2" y1="66.2" x2="626.2" y2="66.2"/>
	<line class="st2" x1="0.2" y1="131.2" x2="626.2" y2="131.2"/>
	<line class="st2" x1="0.2" y1="197.2" x2="626.2" y2="197.2"/>
	<line class="st2" x1="0.2" y1="263.2" x2="626.2" y2="263.2"/>
	<line class="st2" x1="0.2" y1="328.2" x2="626.2" y2="328.2"/>
	<line class="st2" x1="0.2" y1="394.2" x2="626.2" y2="394.2"/>
	<line class="st2" x1="0.2" y1="460.2" x2="626.2" y2="460.2"/>
	<line class="st2" x1="0.2" y1="526.2" x2="626.2" y2="526.2"/>
	<line class="st2" x1="0.2" y1="591.2" x2="626.2" y2="591.2"/>
	<line class="st2" x1="0.2" y1="657.2" x2="626.2" y2="657.2"/>
	<line class="st2" x1="0.2" y1="723.2" x2="626.2" y2="723.2"/>
	<line class="st2" x1="0.2" y1="789.2" x2="626.2" y2="789.2"/>
	<line class="st2" x1="0.2" y1="854.2" x2="626.2" y2="854.2"/>
	<line class="st2" x1="0.2" y1="920.2" x2="626.2" y2="920.2"/>
	<line class="st2" x1="0.2" y1="986.2" x2="626.2" y2="986.2"/>
	<line class="st2" x1="0.2" y1="1052.2" x2="626.2" y2="1052.2"/>
	<line class="st2" x1="0.2" y1="1117.2" x2="626.2" y2="1117.2"/>
	<line class="st2" x1="0.2" y1="1183.2" x2="626.2" y2="1183.2"/>
</g>
</svg>
