<?xml version="1.0" encoding="utf-8"?>
<!-- Generator: Adobe Illustrator 19.1.0, SVG Export Plug-In . SVG Version: 6.00 Build 0)  -->
<svg version="1.1" id="Layer_1" xmlns="http://www.w3.org/2000/svg" xmlns:xlink="http://www.w3.org/1999/xlink" x="0px" y="0px"
	 viewBox="0 0 1003.8 1285.5" style="enable-background:new 0 0 1003.8 1285.5;" xml:space="preserve">
<style type="text/css">
	.st0{clip-path:url(#SVGID_2_);}
	.st1{clip-path:url(#SVGID_4_);}
	.st2{fill:none;stroke:#000000;stroke-miterlimit:10;}
	.st3{fill:none;stroke:#231F20;stroke-miterlimit:10;}
	.st4{stroke:#231F20;stroke-width:0.5;stroke-miterlimit:10;}
	.st5{clip-path:url(#SVGID_6_);}
	.st6{fill:none;stroke:#231F20;stroke-width:0.5;stroke-miterlimit:10;}
	.st7{fill:#202020;}
	.st8{clip-path:url(#SVGID_8_);}
	.st9{stroke:#000000;stroke-miterlimit:10;}
	.st10{clip-path:url(#SVGID_10_);}
	.st11{fill:none;stroke:#000000;}
	.st12{clip-path:url(#SVGID_12_);}
	.st13{clip-path:url(#SVGID_14_);}
	.st14{clip-path:url(#SVGID_16_);}
	.st15{clip-path:url(#SVGID_18_);}
</style>
<g>
	<line class="st2" x1="54.5" y1="53" x2="951.5" y2="53"/>
	<line class="st2" x1="54.5" y1="119" x2="951.5" y2="119"/>
	<line class="st2" x1="54.5" y1="184" x2="951.5" y2="184"/>
	<line class="st2" x1="54.5" y1="250" x2="951.5" y2="250"/>
	<line class="st2" x1="54.5" y1="316" x2="951.5" y2="316"/>
	<line class="st2" x1="54.5" y1="381" x2="951.5" y2="381"/>
	<line class="st2" x1="54.5" y1="447" x2="951.5" y2="447"/>
	<line class="st2" x1="54.5" y1="513" x2="951.5" y2="513"/>
	<line class="st2" x1="54.5" y1="578" x2="951.5" y2="578"/>
	<line class="st2" x1="54.5" y1="644" x2="951.5" y2="644"/>
	<line class="st2" x1="54.5" y1="709" x2="951.5" y2="709"/>
	<line class="st2" x1="54.5" y1="775" x2="951.5" y2="775"/>
	<line class="st2" x1="54.5" y1="841" x2="951.5" y2="841"/>
	<line class="st2" x1="54.5" y1="906" x2="951.5" y2="906"/>
	<line class="st2" x1="54.5" y1="972" x2="951.5" y2="972"/>
	<line class="st2" x1="54.5" y1="1037" x2="951.5" y2="1037"/>
	<line class="st2" x1="54.5" y1="1103" x2="951.5" y2="1103"/>
	<line class="st2" x1="54.5" y1="1169" x2="951.5" y2="1169"/>
	<line class="st2" x1="54.5" y1="1234" x2="951.5" y2="1234"/>
</g>
</svg>
