<?xml version="1.0" encoding="utf-8"?>
<!-- Generator: Adobe Illustrator 19.1.0, SVG Export Plug-In . SVG Version: 6.00 Build 0)  -->
<svg version="1.1" id="Layer_1" xmlns="http://www.w3.org/2000/svg" xmlns:xlink="http://www.w3.org/1999/xlink" x="0px" y="0px"
	 viewBox="0 0 288 144" style="enable-background:new 0 0 288 144;" xml:space="preserve">
<style type="text/css">
	.st0{fill:none;stroke:#000000;stroke-miterlimit:10;}
	.st1{clip-path:url(#SVGID_2_);fill:none;stroke:#000000;stroke-miterlimit:10;}
	.st2{clip-path:url(#SVGID_4_);fill:none;stroke:#000000;stroke-miterlimit:10;}
	.st3{clip-path:url(#SVGID_6_);}
	.st4{clip-path:url(#SVGID_8_);fill:none;stroke:#000000;stroke-miterlimit:10;}
</style>
<path class="st0" d="M132.4,99.8c31.3,0,49.3,0.5,51.3,11.3c2.1,10.8-28.2,19-50.8,19.5s-24.1-4.6-24.1-16.9S127.8,99.8,132.4,99.8z
	"/>
<path class="st0" d="M149.4,75.1c12.8,0,26.7,4.6,26.7,11.3s-9.8,11.3-29.3,11.8c-19.5,0.5-19-7.2-19-11.8
	C127.8,81.8,138.6,75.1,149.4,75.1z"/>
<path class="st0" d="M137.1,58.2c11.3,0,9.8,5.6,9.8,8.7c0,3.1-2.1,5.1-8.2,7.2C132.4,76.1,128.8,58.2,137.1,58.2z"/>
</svg>
