<?xml version="1.0" encoding="utf-8"?>
<!-- Generator: Adobe Illustrator 19.1.0, SVG Export Plug-In . SVG Version: 6.00 Build 0)  -->
<svg version="1.1" id="Layer_1" xmlns="http://www.w3.org/2000/svg" xmlns:xlink="http://www.w3.org/1999/xlink" x="0px" y="0px"
	 viewBox="0 0 324 216" style="enable-background:new 0 0 324 216;" xml:space="preserve">
<style type="text/css">
	.st0{fill:none;stroke:#000000;stroke-miterlimit:10;}
	.st1{clip-path:url(#SVGID_2_);}
	.st2{clip-path:url(#SVGID_4_);}
	.st3{clip-path:url(#SVGID_6_);}
	.st4{fill:none;stroke:#231F20;stroke-miterlimit:10;}
	.st5{clip-path:url(#SVGID_8_);}
	.st6{clip-path:url(#SVGID_10_);}
	.st7{clip-path:url(#SVGID_12_);}
	.st8{clip-path:url(#SVGID_14_);fill:none;stroke:#000000;stroke-miterlimit:10;}
	.st9{clip-path:url(#SVGID_16_);}
	.st10{clip-path:url(#SVGID_18_);}
</style>
<polygon class="st0" points="35.6,45.8 44.3,46.5 42.5,38 50.8,40.7 51.1,32 58.6,36.5 60.8,28.1 67,34.2 71.2,26.5 75.8,34 
	81.7,27.4 84.4,35.7 91.6,30.7 92.4,39.4 100.5,36.2 99.3,44.9 108,43.6 104.8,51.8 113.5,52.6 108.5,59.7 116.8,62.5 110.3,68.3 
	117.7,72.9 110,77.1 116.2,83.3 107.8,85.6 112.3,93.1 103.6,93.4 106.3,101.7 97.8,99.9 98.5,108.6 90.6,105 89.3,113.6 
	82.4,108.2 79.2,116.3 73.7,109.5 68.7,116.7 64.9,108.7 58.4,114.5 56.6,106 48.9,110.1 49.1,101.4 40.7,103.6 42.9,95.2 
	34.2,95.4 38.3,87.7 29.7,85.9 35.5,79.4 27.6,75.7 34.7,70.6 27.9,65.2 36,61.9 30.6,55 39.2,53.7 "/>
<rect x="126.4" y="75.7" class="st0" width="137.9" height="9.6"/>
<g>
	<line class="st0" x1="126" y1="98.5" x2="195" y2="98.5"/>
	<line class="st0" x1="126" y1="122.5" x2="195" y2="122.5"/>
	<line class="st0" x1="126" y1="145.5" x2="195" y2="145.5"/>
</g>
<line class="st0" x1="126" y1="193.5" x2="220" y2="193.5"/>
</svg>
