<?xml version="1.0" encoding="utf-8"?>
<!-- Generator: Adobe Illustrator 19.1.0, SVG Export Plug-In . SVG Version: 6.00 Build 0)  -->
<svg version="1.1" id="Layer_1" xmlns="http://www.w3.org/2000/svg" xmlns:xlink="http://www.w3.org/1999/xlink" x="0px" y="0px"
	 viewBox="0 0 640 640" style="enable-background:new 0 0 640 640;" xml:space="preserve">
<style type="text/css">
	.st0{fill:none;stroke:#000000;stroke-miterlimit:10;}
	.st1{fill:none;stroke:#231F20;stroke-width:0.5;stroke-miterlimit:10;}
	.st2{fill:none;}
	.st3{fill:none;stroke:#231F20;stroke-miterlimit:10;}
	.st4{clip-path:url(#SVGID_2_);}
	.st5{fill:#202020;}
	.st6{clip-path:url(#SVGID_4_);}
	.st7{clip-path:url(#SVGID_6_);}
</style>
<g>
	<path class="st1" d="M640,320C640,143.3,496.7,0,320,0C143.3,0,0,143.3,0,320c0,176.7,143.3,320,320,320
		C496.7,640,640,496.7,640,320z"/>
	<path class="st1" d="M617.1,320c0-164.1-133-297.1-297.1-297.1c-164.1,0-297.1,133-297.1,297.1c0,164.1,133,297.1,297.1,297.1
		C484.1,617.1,617.1,484.1,617.1,320z"/>
	<path class="st1" d="M594.3,320c0-151.5-122.8-274.3-274.3-274.3C168.5,45.7,45.7,168.5,45.7,320c0,151.5,122.8,274.3,274.3,274.3
		C471.5,594.3,594.3,471.5,594.3,320z"/>
	<circle class="st1" cx="320" cy="320" r="251.4"/>
	<circle class="st1" cx="320" cy="320" r="228.6"/>
	<circle class="st1" cx="320" cy="320" r="205.7"/>
	<circle class="st1" cx="320" cy="320" r="182.9"/>
	<circle class="st1" cx="320" cy="320" r="160"/>
</g>
</svg>
