<?xml version="1.0" encoding="utf-8"?>
<!-- Generator: Adobe Illustrator 19.1.0, SVG Export Plug-In . SVG Version: 6.00 Build 0)  -->
<svg version="1.1" id="Layer_1" xmlns="http://www.w3.org/2000/svg" xmlns:xlink="http://www.w3.org/1999/xlink" x="0px" y="0px"
	 viewBox="0 0 640 640" style="enable-background:new 0 0 640 640;" xml:space="preserve">
<style type="text/css">
	.st0{fill:none;stroke:#000000;stroke-miterlimit:10;}
	.st1{fill:none;stroke:#231F20;stroke-width:0.5;stroke-miterlimit:10;}
	.st2{fill:none;}
	.st3{fill:none;stroke:#231F20;stroke-miterlimit:10;}
	.st4{clip-path:url(#SVGID_2_);}
	.st5{fill:#202020;}
	.st6{clip-path:url(#SVGID_4_);}
	.st7{clip-path:url(#SVGID_6_);}
</style>
<path class="st0" d="M485.8,221.3l9.2-19.4c-15.1-22.4-34.5-41.7-56.9-56.9l-19.4,9.2c-20,9.5-43.9-0.4-51.3-21.3l-7.2-20.2
	c-13-2.5-26.5-3.8-40.2-3.8s-27.2,1.3-40.2,3.8l-7.2,20.2c-7.4,20.9-31.3,30.8-51.3,21.3l-19.4-9.2c-22.4,15.1-41.7,34.5-56.9,56.9
	l9.2,19.4c9.5,20-0.4,43.9-21.3,51.3l-20.2,7.2c-2.5,13-3.8,26.5-3.8,40.2s1.3,27.2,3.8,40.2l20.2,7.2c20.9,7.4,30.8,31.3,21.3,51.3
	l-9.2,19.4c15.1,22.4,34.5,41.7,56.9,56.9l19.4-9.2c20-9.5,43.9,0.4,51.3,21.3l7.2,20.2c13,2.5,26.5,3.8,40.2,3.8s27.2-1.3,40.2-3.8
	l7.2-20.2c7.4-20.9,31.3-30.8,51.3-21.3l19.4,9.2c22.4-15.1,41.7-34.5,56.9-56.9l-9.2-19.4c-9.5-20,0.4-43.9,21.3-51.3l20.2-7.2
	c2.5-13,3.8-26.5,3.8-40.2s-1.3-27.2-3.8-40.2l-20.2-7.2C486.1,265.2,476.2,241.3,485.8,221.3z"/>
<circle class="st0" cx="320" cy="320" r="124.2"/>
</svg>
