<?xml version="1.0" encoding="utf-8"?>
<!-- Generator: Adobe Illustrator 19.1.0, SVG Export Plug-In . SVG Version: 6.00 Build 0)  -->
<svg version="1.1" id="Layer_1" xmlns="http://www.w3.org/2000/svg" xmlns:xlink="http://www.w3.org/1999/xlink" x="0px" y="0px"
	 viewBox="0 0 144 216" style="enable-background:new 0 0 144 216;" xml:space="preserve">
<style type="text/css">
	.st0{fill:none;stroke:#000000;stroke-miterlimit:10;}
	.st1{clip-path:url(#SVGID_2_);fill:none;stroke:#000000;stroke-miterlimit:10;}
	.st2{clip-path:url(#SVGID_4_);fill:none;stroke:#000000;stroke-miterlimit:10;}
	.st3{clip-path:url(#SVGID_6_);}
	.st4{clip-path:url(#SVGID_8_);fill:none;stroke:#000000;stroke-miterlimit:10;}
</style>
<path class="st0" d="M15.9,20.9c25.7,0,65.5,3.1,90.5,3.9"/>
<path class="st0" d="M15.9,42.5c19.5,0,88.2,3.9,109.2,1.6"/>
<path class="st0" d="M17.6,64c19.9,0,98-2.4,117.6,1.4"/>
<path class="st0" d="M18.6,84.8c29,0,102.2,0.7,113,0.7"/>
<path class="st0" d="M16.5,106c16.4,0,80.8-0.3,92.4-0.3"/>
<path class="st0" d="M17.2,125.7c17.5,0,82.9,1.7,89.6,1.7"/>
<path class="st0" d="M17.6,147.7c42.3,0,109.2-0.7,119.3-0.7"/>
<path class="st0" d="M17.6,168.5c26.9-3.8,114.1,0.7,116.2,0.7"/>
</svg>
