<?xml version="1.0" encoding="utf-8"?>
<!-- Generator: Adobe Illustrator 19.1.0, SVG Export Plug-In . SVG Version: 6.00 Build 0)  -->
<svg version="1.1" id="Layer_1" xmlns="http://www.w3.org/2000/svg" xmlns:xlink="http://www.w3.org/1999/xlink" x="0px" y="0px"
	 viewBox="0 0 1033.3 640" style="enable-background:new 0 0 1033.3 640;" xml:space="preserve">
<style type="text/css">
	.st0{fill:none;stroke:#000000;stroke-miterlimit:10;}
	.st1{fill:none;stroke:#231F20;stroke-width:0.5;stroke-miterlimit:10;}
	.st2{fill:none;}
	.st3{fill:none;stroke:#231F20;stroke-miterlimit:10;}
	.st4{clip-path:url(#SVGID_2_);}
	.st5{fill:#202020;}
	.st6{clip-path:url(#SVGID_4_);}
	.st7{clip-path:url(#SVGID_6_);}
</style>
<g>
	<g>
		<path class="st0" d="M0-151.7c129.2,0,129.2,200,258.3,200c129.2,0,129.2-200,258.3-200c129.2,0,129.2,200,258.3,200
			s129.2-200,258.3-200"/>
	</g>
	<g>
		<path class="st0" d="M0-102.7c129.2,0,129.2,200,258.3,200c129.2,0,129.2-200,258.3-200c129.2,0,129.2,200,258.3,200
			s129.2-200,258.3-200"/>
	</g>
	<g>
		<path class="st0" d="M0-53.7c129.2,0,129.2,200,258.3,200c129.2,0,129.2-200,258.3-200c129.2,0,129.2,200,258.3,200
			s129.2-200,258.3-200"/>
	</g>
	<g>
		<path class="st0" d="M0-4.7c129.2,0,129.2,200,258.3,200c129.2,0,129.2-200,258.3-200c129.2,0,129.2,200,258.3,200
			s129.2-200,258.3-200"/>
	</g>
	<g>
		<path class="st0" d="M0,44.3c129.2,0,129.2,200,258.3,200c129.2,0,129.2-200,258.3-200c129.2,0,129.2,200,258.3,200
			s129.2-200,258.3-200"/>
	</g>
	<g>
		<path class="st0" d="M0,93.3c129.2,0,129.2,200,258.3,200c129.2,0,129.2-200,258.3-200c129.2,0,129.2,200,258.3,200
			s129.2-200,258.3-200"/>
	</g>
	<g>
		<path class="st0" d="M0,142.4c129.2,0,129.2,200,258.3,200c129.2,0,129.2-200,258.3-200c129.2,0,129.2,200,258.3,200
			s129.2-200,258.3-200"/>
	</g>
	<g>
		<path class="st0" d="M0,191.4c129.2,0,129.2,200,258.3,200c129.2,0,129.2-200,258.3-200c129.2,0,129.2,200,258.3,200
			s129.2-200,258.3-200"/>
	</g>
	<g>
		<path class="st0" d="M0,240.4c129.2,0,129.2,200,258.3,200c129.2,0,129.2-200,258.3-200c129.2,0,129.2,200,258.3,200
			s129.2-200,258.3-200"/>
	</g>
	<g>
		<path class="st0" d="M0,289.4c129.2,0,129.2,200,258.3,200c129.2,0,129.2-200,258.3-200c129.2,0,129.2,200,258.3,200
			s129.2-200,258.3-200"/>
	</g>
	<g>
		<path class="st0" d="M0,338.4c129.2,0,129.2,200,258.3,200c129.2,0,129.2-200,258.3-200c129.2,0,129.2,200,258.3,200
			s129.2-200,258.3-200"/>
	</g>
	<g>
		<path class="st0" d="M0,387.4c129.2,0,129.2,200,258.3,200c129.2,0,129.2-200,258.3-200c129.2,0,129.2,200,258.3,200
			s129.2-200,258.3-200"/>
	</g>
	<g>
		<path class="st0" d="M0,436.4c129.2,0,129.2,200,258.3,200c129.2,0,129.2-200,258.3-200c129.2,0,129.2,200,258.3,200
			s129.2-200,258.3-200"/>
	</g>
	<g>
		<path class="st0" d="M0,485.5c129.2,0,129.2,200,258.3,200c129.2,0,129.2-200,258.3-200c129.2,0,129.2,200,258.3,200
			s129.2-200,258.3-200"/>
	</g>
	<g>
		<path class="st0" d="M0,534.5c129.2,0,129.2,200,258.3,200c129.2,0,129.2-200,258.3-200c129.2,0,129.2,200,258.3,200
			s129.2-200,258.3-200"/>
	</g>
	<g>
		<path class="st0" d="M0,583.5c129.2,0,129.2,200,258.3,200c129.2,0,129.2-200,258.3-200c129.2,0,129.2,200,258.3,200
			s129.2-200,258.3-200"/>
	</g>
	<g>
		<path class="st0" d="M0,632.5c129.2,0,129.2,200,258.3,200c129.2,0,129.2-200,258.3-200c129.2,0,129.2,200,258.3,200
			s129.2-200,258.3-200"/>
	</g>
</g>
</svg>
