<?xml version="1.0" encoding="utf-8"?>
<!-- Generator: Adobe Illustrator 19.1.0, SVG Export Plug-In . SVG Version: 6.00 Build 0)  -->
<svg version="1.1" id="Layer_1" xmlns="http://www.w3.org/2000/svg" xmlns:xlink="http://www.w3.org/1999/xlink" x="0px" y="0px"
	 viewBox="0 0 1280 640" style="enable-background:new 0 0 1280 640;" xml:space="preserve">
<style type="text/css">
	.st0{fill:none;stroke:#000000;stroke-miterlimit:10;}
	.st1{fill:none;stroke:#231F20;stroke-width:0.5;stroke-miterlimit:10;}
	.st2{fill:none;}
	.st3{fill:none;stroke:#231F20;stroke-miterlimit:10;}
	.st4{clip-path:url(#SVGID_2_);}
	.st5{fill:#202020;}
	.st6{clip-path:url(#SVGID_4_);}
	.st7{clip-path:url(#SVGID_6_);}
</style>
<g>
	<defs>
		<rect id="SVGID_3_" x="-1355.9" width="1279.9" height="639.4"/>
	</defs>
	<clipPath id="SVGID_2_">
		<use xlink:href="#SVGID_3_"  style="overflow:visible;"/>
	</clipPath>
	<g class="st4">
		<line class="st0" x1="-1356.4" y1="639.9" x2="53.4" y2="-95.1"/>
		<line class="st0" x1="-1356.4" y1="639.9" x2="114.7" y2="-64.4"/>
		<line class="st0" x1="-1356.5" y1="640" x2="176" y2="-33.8"/>
		<line class="st0" x1="-1356.5" y1="640" x2="237.2" y2="-3.1"/>
		<line class="st0" x1="-1356.5" y1="640" x2="298.5" y2="27.5"/>
		<line class="st0" x1="-1356.5" y1="640" x2="359.8" y2="58.2"/>
		<line class="st0" x1="-1356.6" y1="640.1" x2="421.1" y2="88.8"/>
		<line class="st0" x1="-1356.6" y1="640.1" x2="482.3" y2="119.5"/>
		<line class="st0" x1="-1356.6" y1="640.1" x2="543.6" y2="150.1"/>
		<line class="st0" x1="-1356.6" y1="640.1" x2="604.9" y2="180.8"/>
		<line class="st0" x1="-1356.7" y1="640.2" x2="666.2" y2="211.4"/>
		<line class="st0" x1="-1356.7" y1="640.2" x2="727.4" y2="242.1"/>
		<line class="st0" x1="-1356.7" y1="640.2" x2="788.7" y2="272.7"/>
		<line class="st0" x1="-1356.7" y1="640.2" x2="850" y2="303.4"/>
		<line class="st0" x1="-1356.8" y1="640.3" x2="911.3" y2="334"/>
		<line class="st0" x1="-1356.8" y1="640.3" x2="972.5" y2="364.7"/>
		<line class="st0" x1="-1356.8" y1="640.3" x2="1033.8" y2="395.3"/>
		<line class="st0" x1="-1356.8" y1="640.3" x2="1095.1" y2="426"/>
		<line class="st0" x1="-1356.9" y1="640.4" x2="1156.4" y2="456.6"/>
		<line class="st0" x1="-1356.9" y1="640.4" x2="1217.6" y2="487.3"/>
		<line class="st0" x1="-1356.9" y1="640.4" x2="1278.9" y2="517.9"/>
		<line class="st0" x1="-1356.9" y1="640.4" x2="1340.2" y2="548.6"/>
		<line class="st0" x1="-1357" y1="640.5" x2="1401.5" y2="579.2"/>
		<line class="st0" x1="-1357" y1="640.5" x2="1462.7" y2="609.9"/>
	</g>
</g>
<g>
	<line class="st0" x1="1279.5" y1="0" x2="1279.5" y2="639"/>
	<line class="st0" x1="1228.5" y1="26" x2="1228.5" y2="613"/>
	<line class="st0" x1="1177.5" y1="51" x2="1177.5" y2="588"/>
	<line class="st0" x1="1126.5" y1="77" x2="1126.5" y2="562"/>
	<line class="st0" x1="1075.5" y1="102" x2="1075.5" y2="537"/>
	<line class="st0" x1="1023.5" y1="128" x2="1023.5" y2="511"/>
	<line class="st0" x1="972.5" y1="153" x2="972.5" y2="486"/>
	<line class="st0" x1="921.5" y1="179" x2="921.5" y2="460"/>
	<line class="st0" x1="870.5" y1="204" x2="870.5" y2="435"/>
	<line class="st0" x1="819.5" y1="230" x2="819.5" y2="409"/>
	<line class="st0" x1="767.5" y1="256" x2="767.5" y2="383"/>
	<line class="st0" x1="716.5" y1="281" x2="716.5" y2="358"/>
	<line class="st0" x1="665.5" y1="307" x2="665.5" y2="332"/>
	<line class="st0" x1="614.5" y1="332" x2="614.5" y2="307"/>
	<line class="st0" x1="563.5" y1="358" x2="563.5" y2="281"/>
	<line class="st0" x1="511.5" y1="383" x2="511.5" y2="256"/>
	<line class="st0" x1="460.5" y1="409" x2="460.5" y2="230"/>
	<line class="st0" x1="409.5" y1="435" x2="409.5" y2="204"/>
	<line class="st0" x1="358.5" y1="460" x2="358.5" y2="179"/>
	<line class="st0" x1="307.5" y1="486" x2="307.5" y2="153"/>
	<line class="st0" x1="255.5" y1="511" x2="255.5" y2="128"/>
	<line class="st0" x1="204.5" y1="537" x2="204.5" y2="102"/>
	<line class="st0" x1="153.5" y1="562" x2="153.5" y2="77"/>
	<line class="st0" x1="102.5" y1="588" x2="102.5" y2="51"/>
	<line class="st0" x1="51.5" y1="613" x2="51.5" y2="26"/>
</g>
</svg>
