<?xml version="1.0" encoding="utf-8"?>
<!-- Generator: Adobe Illustrator 19.1.0, SVG Export Plug-In . SVG Version: 6.00 Build 0)  -->
<svg version="1.1" id="Layer_1" xmlns="http://www.w3.org/2000/svg" xmlns:xlink="http://www.w3.org/1999/xlink" x="0px" y="0px"
	 viewBox="0 0 360 216" style="enable-background:new 0 0 360 216;" xml:space="preserve">
<style type="text/css">
	.st0{fill:none;stroke:#000000;stroke-miterlimit:10;}
	.st1{clip-path:url(#SVGID_2_);fill:none;stroke:#000000;stroke-miterlimit:10;}
	.st2{clip-path:url(#SVGID_4_);fill:none;stroke:#000000;stroke-miterlimit:10;}
	.st3{clip-path:url(#SVGID_6_);}
	.st4{clip-path:url(#SVGID_8_);fill:none;stroke:#000000;stroke-miterlimit:10;}
</style>
<path class="st0" d="M216,171c114.5-0.1,116.8,4.4,117,18s-8.6,4.1-117,9c-101.3,4.6-107.6-4.6-108-18S171.7,171,216,171z"/>
<path class="st0" d="M63.2,178.1c4.3-0.4,6,2.2,6,4.5c0,2.3-0.2,5.7-6,5.7s-5.6-3-5.6-5.1S58.9,178.4,63.2,178.1z"/>
<path class="st0" d="M87.7,178.2c4,0.5,6.4,2,6.7,6.5c0.3,4.5-5,3.8-6.7,4.2c-1.7,0.3-6-0.5-5.7-5.8C82.3,177.9,85.4,178,87.7,178.2
	z"/>
</svg>
