<?xml version="1.0" encoding="utf-8"?>
<!-- Generator: Adobe Illustrator 19.1.0, SVG Export Plug-In . SVG Version: 6.00 Build 0)  -->
<svg version="1.1" id="Layer_1" xmlns="http://www.w3.org/2000/svg" xmlns:xlink="http://www.w3.org/1999/xlink" x="0px" y="0px"
	 viewBox="0 0 640 1280" style="enable-background:new 0 0 640 1280;" xml:space="preserve">
<style type="text/css">
	.st0{fill:none;stroke:#000000;stroke-miterlimit:10;}
	.st1{fill:none;stroke:#231F20;stroke-width:0.5;stroke-miterlimit:10;}
	.st2{fill:none;}
	.st3{fill:none;stroke:#231F20;stroke-miterlimit:10;}
	.st4{clip-path:url(#SVGID_2_);}
	.st5{fill:#202020;}
	.st6{clip-path:url(#SVGID_4_);}
	.st7{clip-path:url(#SVGID_6_);}
</style>
<g>
	<line class="st0" x1="614" y1="1228.5" x2="26" y2="1228.5"/>
	<line class="st0" x1="588" y1="1177.5" x2="52" y2="1177.5"/>
	<line class="st0" x1="563" y1="1126.5" x2="77" y2="1126.5"/>
	<line class="st0" x1="537" y1="1075.5" x2="103" y2="1075.5"/>
	<line class="st0" x1="512" y1="1024.5" x2="128" y2="1024.5"/>
	<line class="st0" x1="486" y1="972.5" x2="154" y2="972.5"/>
	<line class="st0" x1="461" y1="921.5" x2="179" y2="921.5"/>
	<line class="st0" x1="435" y1="870.5" x2="205" y2="870.5"/>
	<line class="st0" x1="409" y1="819.5" x2="231" y2="819.5"/>
	<line class="st0" x1="384" y1="768.5" x2="256" y2="768.5"/>
	<line class="st0" x1="358" y1="716.5" x2="282" y2="716.5"/>
	<line class="st0" x1="333" y1="665.5" x2="307" y2="665.5"/>
	<line class="st0" x1="307" y1="614.5" x2="333" y2="614.5"/>
	<line class="st0" x1="282" y1="563.5" x2="358" y2="563.5"/>
	<line class="st0" x1="256" y1="512.5" x2="384" y2="512.5"/>
	<line class="st0" x1="231" y1="460.5" x2="409" y2="460.5"/>
	<line class="st0" x1="205" y1="409.5" x2="435" y2="409.5"/>
	<line class="st0" x1="179" y1="358.5" x2="461" y2="358.5"/>
	<line class="st0" x1="154" y1="307.5" x2="486" y2="307.5"/>
	<line class="st0" x1="128" y1="256.5" x2="512" y2="256.5"/>
	<line class="st0" x1="103" y1="204.5" x2="537" y2="204.5"/>
	<line class="st0" x1="77" y1="153.5" x2="563" y2="153.5"/>
	<line class="st0" x1="52" y1="102.5" x2="588" y2="102.5"/>
	<line class="st0" x1="26" y1="51.5" x2="614" y2="51.5"/>
	<line class="st0" x1="0" y1="0.5" x2="639" y2="0.5"/>
</g>
</svg>
