<?xml version="1.0" encoding="utf-8"?>
<!-- Generator: Adobe Illustrator 19.1.0, SVG Export Plug-In . SVG Version: 6.00 Build 0)  -->
<svg version="1.1" id="Layer_1" xmlns="http://www.w3.org/2000/svg" xmlns:xlink="http://www.w3.org/1999/xlink" x="0px" y="0px"
	 viewBox="0 0 640 640" style="enable-background:new 0 0 640 640;" xml:space="preserve">
<style type="text/css">
	.st0{fill:none;stroke:#000000;stroke-miterlimit:10;}
	.st1{fill:none;stroke:#231F20;stroke-width:0.5;stroke-miterlimit:10;}
	.st2{fill:none;}
	.st3{fill:none;stroke:#231F20;stroke-miterlimit:10;}
	.st4{clip-path:url(#SVGID_2_);}
	.st5{fill:#202020;}
	.st6{clip-path:url(#SVGID_4_);}
	.st7{clip-path:url(#SVGID_6_);}
</style>
<g>
	<defs>
		<rect id="SVGID_5_" x="0.1" width="639.9" height="639.4"/>
	</defs>
	<clipPath id="SVGID_2_">
		<use xlink:href="#SVGID_5_"  style="overflow:visible;"/>
	</clipPath>
	<g class="st4">
		<line class="st0" x1="0.5" y1="639" x2="0.5" y2="-800"/>
		<line class="st0" x1="0.1" y1="639.4" x2="48.1" y2="-752"/>
		<line class="st0" x1="0.1" y1="639.5" x2="96.1" y2="-704"/>
		<line class="st0" x1="0.1" y1="639.5" x2="144.1" y2="-656"/>
		<line class="st0" x1="0" y1="639.5" x2="192.1" y2="-607.9"/>
		<line class="st0" x1="0" y1="639.6" x2="240.1" y2="-559.9"/>
		<line class="st0" x1="0" y1="639.6" x2="288.1" y2="-511.9"/>
		<line class="st0" x1="0" y1="639.6" x2="336.1" y2="-463.9"/>
		<line class="st0" x1="0" y1="639.7" x2="384.1" y2="-415.9"/>
		<line class="st0" x1="0" y1="639.7" x2="432.1" y2="-367.9"/>
		<line class="st0" x1="-0.1" y1="639.8" x2="480.1" y2="-319.8"/>
		<line class="st0" x1="-0.1" y1="639.8" x2="528.1" y2="-271.8"/>
		<line class="st0" x1="-0.1" y1="639.8" x2="576.1" y2="-223.8"/>
		<line class="st0" x1="-0.1" y1="639.9" x2="624.1" y2="-175.8"/>
		<line class="st0" x1="-0.1" y1="639.9" x2="672.1" y2="-127.8"/>
		<line class="st0" x1="-0.2" y1="639.9" x2="720.1" y2="-79.8"/>
		<line class="st0" x1="-0.2" y1="640" x2="768.1" y2="-31.7"/>
		<line class="st0" x1="-0.2" y1="640" x2="816.1" y2="16.3"/>
		<line class="st0" x1="-0.2" y1="640.1" x2="864.1" y2="64.3"/>
		<line class="st0" x1="-0.2" y1="640.1" x2="912.1" y2="112.3"/>
		<line class="st0" x1="-0.3" y1="640.1" x2="960.1" y2="160.3"/>
		<line class="st0" x1="-0.3" y1="640.2" x2="1008.1" y2="208.4"/>
		<line class="st0" x1="-0.3" y1="640.2" x2="1056.1" y2="256.4"/>
		<line class="st0" x1="-0.3" y1="640.2" x2="1104.1" y2="304.4"/>
		<line class="st0" x1="-0.3" y1="640.3" x2="1152.1" y2="352.4"/>
		<line class="st0" x1="-0.3" y1="640.3" x2="1200.1" y2="400.4"/>
		<line class="st0" x1="-0.4" y1="640.4" x2="1248.1" y2="448.4"/>
		<line class="st0" x1="-0.4" y1="640.4" x2="1296.1" y2="496.5"/>
		<line class="st0" x1="-0.4" y1="640.4" x2="1344.1" y2="544.5"/>
		<line class="st0" x1="-0.4" y1="640.5" x2="1392.1" y2="592.5"/>
	</g>
</g>
</svg>
