<?xml version="1.0" encoding="utf-8"?>
<!-- Generator: Adobe Illustrator 19.1.0, SVG Export Plug-In . SVG Version: 6.00 Build 0)  -->
<svg version="1.1" id="Layer_1" xmlns="http://www.w3.org/2000/svg" xmlns:xlink="http://www.w3.org/1999/xlink" x="0px" y="0px"
	 viewBox="0 0 640 640" style="enable-background:new 0 0 640 640;" xml:space="preserve">
<style type="text/css">
	.st0{fill:none;stroke:#000000;stroke-miterlimit:10;}
	.st1{fill:none;stroke:#231F20;stroke-width:0.5;stroke-miterlimit:10;}
	.st2{fill:none;}
	.st3{fill:none;stroke:#231F20;stroke-miterlimit:10;}
	.st4{clip-path:url(#SVGID_2_);}
	.st5{fill:#202020;}
	.st6{clip-path:url(#SVGID_4_);}
	.st7{clip-path:url(#SVGID_6_);}
</style>
<g>
	<path class="st3" d="M95.7,93.7c125-125,327.6-125,452.5,0c125,125,125,327.6,0,452.5c-125,125-327.6,125-452.5,0
		C-29.3,421.3-29.3,218.7,95.7,93.7z"/>
	<path class="st3" d="M447.6,445.7c69.4-69.4,69.4-182,0-251.4c-69.4-69.4-182-69.4-251.4,0c-69.4,69.4-69.4,182,0,251.4
		C265.7,515.1,378.2,515.1,447.6,445.7z"/>
	<path class="st1" d="M347.1,345.1c13.9-13.9,13.9-36.4,0-50.3c-13.9-13.9-36.4-13.9-50.3,0c-13.9,13.9-13.9,36.4,0,50.3
		C310.7,359,333.2,359,347.1,345.1z"/>
	<g>
		<defs>
			<path id="SVGID_1_" d="M95.7,93.7c125-125,327.6-125,452.5,0c125,125,125,327.6,0,452.5c-125,125-327.6,125-452.5,0
				C-29.3,421.3-29.3,218.7,95.7,93.7z"/>
		</defs>
		<clipPath id="SVGID_2_">
			<use xlink:href="#SVGID_1_"  style="overflow:visible;"/>
		</clipPath>
		<g class="st4">
			<g>
				<line class="st1" x1="-121.3" y1="-36.6" x2="765.2" y2="676.6"/>
				<line class="st1" x1="-121.3" y1="-36.6" x2="765.2" y2="676.6"/>
				<line class="st1" x1="-121.3" y1="-36.6" x2="765.2" y2="676.6"/>
				<line class="st1" x1="-121.3" y1="-36.6" x2="765.2" y2="676.6"/>
				<line class="st1" x1="-121.3" y1="-36.6" x2="765.2" y2="676.6"/>
				<line class="st1" x1="-121.3" y1="-36.6" x2="765.2" y2="676.6"/>
				<line class="st1" x1="-103.8" y1="-54.1" x2="747.6" y2="694.1"/>
				<line class="st1" x1="-86.2" y1="-71.6" x2="730.1" y2="711.6"/>
				<line class="st1" x1="-68.6" y1="-89.2" x2="712.5" y2="729.2"/>
				<line class="st1" x1="-51" y1="-106.7" x2="694.9" y2="746.7"/>
				<line class="st1" x1="-33.4" y1="-124.2" x2="677.3" y2="764.2"/>
			</g>
			<g>
				<line class="st1" x1="678.5" y1="-123.3" x2="-34.6" y2="763.3"/>
				<line class="st1" x1="678.5" y1="-123.3" x2="-34.6" y2="763.3"/>
				<line class="st1" x1="678.5" y1="-123.3" x2="-34.6" y2="763.3"/>
				<line class="st1" x1="678.5" y1="-123.3" x2="-34.6" y2="763.3"/>
				<line class="st1" x1="678.5" y1="-123.3" x2="-34.6" y2="763.3"/>
				<line class="st1" x1="678.5" y1="-123.3" x2="-34.6" y2="763.3"/>
				<line class="st1" x1="696" y1="-105.7" x2="-52.1" y2="745.7"/>
				<line class="st1" x1="713.6" y1="-88.1" x2="-69.7" y2="728.1"/>
				<line class="st1" x1="731.1" y1="-70.5" x2="-87.2" y2="710.5"/>
				<line class="st1" x1="748.6" y1="-53" x2="-104.8" y2="693"/>
				<line class="st1" x1="766.2" y1="-35.4" x2="-122.3" y2="675.4"/>
			</g>
		</g>
	</g>
</g>
</svg>
