<?xml version="1.0" encoding="utf-8"?>
<!-- Generator: Adobe Illustrator 19.1.0, SVG Export Plug-In . SVG Version: 6.00 Build 0)  -->
<svg version="1.1" id="Layer_1" xmlns="http://www.w3.org/2000/svg" xmlns:xlink="http://www.w3.org/1999/xlink" x="0px" y="0px"
	 viewBox="0 0 360 288" style="enable-background:new 0 0 360 288;" xml:space="preserve">
<style type="text/css">
	.st0{fill:none;stroke:#000000;stroke-miterlimit:10;}
	.st1{clip-path:url(#SVGID_2_);fill:none;stroke:#000000;stroke-miterlimit:10;}
	.st2{clip-path:url(#SVGID_4_);fill:none;stroke:#000000;stroke-miterlimit:10;}
	.st3{clip-path:url(#SVGID_6_);}
	.st4{clip-path:url(#SVGID_8_);fill:none;stroke:#000000;stroke-miterlimit:10;}
	.st5{clip-path:url(#SVGID_10_);}
	.st6{clip-path:url(#SVGID_12_);fill:none;stroke:#000000;stroke-miterlimit:10;}
	.st7{clip-path:url(#SVGID_14_);fill:none;stroke:#000000;stroke-miterlimit:10;}
	.st8{clip-path:url(#SVGID_16_);fill:none;stroke:#000000;stroke-miterlimit:10;}
	.st9{clip-path:url(#SVGID_18_);fill:none;stroke:#000000;stroke-miterlimit:10;}
	.st10{clip-path:url(#SVGID_20_);}
	.st11{clip-path:url(#SVGID_22_);fill:none;stroke:#000000;stroke-miterlimit:10;}
	.st12{clip-path:url(#SVGID_24_);fill:none;stroke:#000000;stroke-miterlimit:10;}
	.st13{clip-path:url(#SVGID_26_);fill:none;stroke:#000000;stroke-miterlimit:10;}
	.st14{clip-path:url(#SVGID_28_);fill:none;stroke:#000000;stroke-miterlimit:10;}
	.st15{clip-path:url(#SVGID_30_);fill:none;stroke:#000000;stroke-miterlimit:10;}
</style>
<path class="st0" d="M0,257.8c0,0,47.4-179.6,151.9-173.6c104.5,6,126.2,79.2,208.1,171"/>
<path class="st0" d="M314.2,287.3c0,0-220.9-71.5-131.1-84.8c89.8-13.3-74.8-35.3-101.8-38.6c-9.7-1.2-42.9-4.7-17.5-34.9"/>
<g>
	<defs>
		<rect id="SVGID_9_" x="-360" width="287.3" height="287.3"/>
	</defs>
	<clipPath id="SVGID_2_">
		<use xlink:href="#SVGID_9_"  style="overflow:visible;"/>
	</clipPath>
	<g style="clip-path:url(#SVGID_2_);">
		<path class="st0" d="M-304,17c39-26.5,80.1-41,117.6-45.7c78-9.7,134.8,17,138.2,83.2c2.5,46,40.2,106.7,55.9,156.3
			c15.6,49.9,9.1,88-76.7,89.8c-14.1,0.3-29.8,0.9-46.3,1.2c-66.5,1.1-146.7-1.5-192.5-37.3c-40.7-31.8-62.5-79.2-62.6-126.7
			C-370.4,91.4-348.1,46.9-304,17z"/>
		<path class="st0" d="M-325.9-6.6c48.7-29.4,97.2-47.2,140.8-54.3C-91.2-76.4-23.5-46-19.3,32.2c3.1,55.7,50.7,129.8,71,190.2
			C72,283,64.9,329.7-41.1,331c-17.2,0.2-36.3,0.8-56.5,1.2c-81.7,1.4-180.5-0.7-236.2-42.9c-50.2-38-76.5-95.3-76.1-151.8
			C-409.4,81.4-381.9,27.2-325.9-6.6z"/>
		<path class="st0" d="M-347.8-30.2C-160-134.1,2.2-120.9,9.6,9.9c3.7,65.4,61.1,152.9,86,224.2S113,360.5-13.3,361.4
			C-116,362-278.2,374.5-360,313.9c-59.7-44.2-90.6-111.4-89.6-177C-448.6,71.3-415.7,7.4-347.8-30.2z"/>
	</g>
</g>
</svg>
