<?xml version="1.0" encoding="utf-8"?>
<!-- Generator: Adobe Illustrator 19.1.0, SVG Export Plug-In . SVG Version: 6.00 Build 0)  -->
<svg version="1.1" id="Layer_1" xmlns="http://www.w3.org/2000/svg" xmlns:xlink="http://www.w3.org/1999/xlink" x="0px" y="0px"
	 viewBox="0 0 288 288" style="enable-background:new 0 0 288 288;" xml:space="preserve">
<style type="text/css">
	.st0{fill:none;stroke:#000000;stroke-miterlimit:10;}
	.st1{clip-path:url(#SVGID_2_);fill:none;stroke:#000000;stroke-miterlimit:10;}
	.st2{clip-path:url(#SVGID_4_);fill:none;stroke:#000000;stroke-miterlimit:10;}
	.st3{clip-path:url(#SVGID_6_);}
	.st4{clip-path:url(#SVGID_8_);fill:none;stroke:#000000;stroke-miterlimit:10;}
	.st5{clip-path:url(#SVGID_10_);}
	.st6{clip-path:url(#SVGID_12_);fill:none;stroke:#000000;stroke-miterlimit:10;}
	.st7{clip-path:url(#SVGID_14_);fill:none;stroke:#000000;stroke-miterlimit:10;}
	.st8{clip-path:url(#SVGID_16_);fill:none;stroke:#000000;stroke-miterlimit:10;}
	.st9{clip-path:url(#SVGID_18_);fill:none;stroke:#000000;stroke-miterlimit:10;}
	.st10{clip-path:url(#SVGID_20_);}
	.st11{clip-path:url(#SVGID_22_);fill:none;stroke:#000000;stroke-miterlimit:10;}
	.st12{clip-path:url(#SVGID_24_);fill:none;stroke:#000000;stroke-miterlimit:10;}
	.st13{clip-path:url(#SVGID_26_);fill:none;stroke:#000000;stroke-miterlimit:10;}
	.st14{clip-path:url(#SVGID_28_);fill:none;stroke:#000000;stroke-miterlimit:10;}
	.st15{clip-path:url(#SVGID_30_);fill:none;stroke:#000000;stroke-miterlimit:10;}
</style>
<path class="st0" d="M47.1,16.5c20.5-0.3,38.5-3.1,38.5,8.1s-16.2,8.7-38.5,9.3C24.7,34.5,17.9,36,16.6,25S38.4,16.6,47.1,16.5z"/>
<path class="st0" d="M48.3,49.3c29.8,0,39.2,1.2,37.3,87.6c-1.9,86.4-1.9,89.5-31.7,87.6s-40.5-11.5-37.3-87.5S11.6,49.3,48.3,49.3z
	"/>
<g>
	<defs>
		<rect id="SVGID_9_" x="360" width="287.3" height="287.3"/>
	</defs>
	<clipPath id="SVGID_2_">
		<use xlink:href="#SVGID_9_"  style="overflow:visible;"/>
	</clipPath>
	<g style="clip-path:url(#SVGID_2_);">
		<path class="st0" d="M372.2-30.2c187.8-103.9,350-90.7,357.4,40.1c3.7,65.4,61.1,152.9,86,224.2c24.9,71.3,17.4,126.5-108.9,127.3
			C604,362,441.8,374.5,360,313.9c-59.7-44.2-90.6-111.4-89.6-177C271.4,71.3,304.3,7.4,372.2-30.2z"/>
	</g>
</g>
</svg>
