<?xml version="1.0" encoding="utf-8"?>
<!-- Generator: Adobe Illustrator 19.1.0, SVG Export Plug-In . SVG Version: 6.00 Build 0)  -->
<svg version="1.1" id="Layer_1" xmlns="http://www.w3.org/2000/svg" xmlns:xlink="http://www.w3.org/1999/xlink" x="0px" y="0px"
	 viewBox="0 0 288 144" style="enable-background:new 0 0 288 144;" xml:space="preserve">
<style type="text/css">
	.st0{fill:none;stroke:#000000;stroke-miterlimit:10;}
	.st1{clip-path:url(#SVGID_2_);fill:none;stroke:#000000;stroke-miterlimit:10;}
	.st2{clip-path:url(#SVGID_4_);fill:none;stroke:#000000;stroke-miterlimit:10;}
	.st3{clip-path:url(#SVGID_6_);}
	.st4{clip-path:url(#SVGID_8_);fill:none;stroke:#000000;stroke-miterlimit:10;}
	.st5{clip-path:url(#SVGID_10_);}
	.st6{clip-path:url(#SVGID_12_);fill:none;stroke:#000000;stroke-miterlimit:10;}
	.st7{clip-path:url(#SVGID_14_);fill:none;stroke:#000000;stroke-miterlimit:10;}
	.st8{clip-path:url(#SVGID_16_);fill:none;stroke:#000000;stroke-miterlimit:10;}
	.st9{clip-path:url(#SVGID_18_);fill:none;stroke:#000000;stroke-miterlimit:10;}
	.st10{clip-path:url(#SVGID_20_);}
	.st11{clip-path:url(#SVGID_22_);fill:none;stroke:#000000;stroke-miterlimit:10;}
	.st12{clip-path:url(#SVGID_24_);fill:none;stroke:#000000;stroke-miterlimit:10;}
	.st13{clip-path:url(#SVGID_26_);fill:none;stroke:#000000;stroke-miterlimit:10;}
	.st14{clip-path:url(#SVGID_28_);fill:none;stroke:#000000;stroke-miterlimit:10;}
	.st15{clip-path:url(#SVGID_30_);fill:none;stroke:#000000;stroke-miterlimit:10;}
</style>
<g>
	<defs>
		<rect id="SVGID_13_" width="288" height="144"/>
	</defs>
	<clipPath id="SVGID_2_">
		<use xlink:href="#SVGID_13_"  style="overflow:visible;"/>
	</clipPath>
	<path class="st1" d="M224,80.7c50.7,0,79.7,0.8,83,18.3c3.3,17.4-45.7,30.7-82.2,31.6c-36.5,0.8-39-7.5-39-27.4
		S216.6,80.7,224,80.7z"/>
	<path class="st1" d="M251.4,40.8c20.8,0,43.2,7.5,43.2,18.3s-15.8,18.3-47.3,19.1c-31.6,0.8-30.7-11.6-30.7-19.1
		S234,40.8,251.4,40.8z"/>
	<path class="st1" d="M231.5,13.4c18.3,0,15.8,9.1,15.8,14.1S244,35.9,234,39.2C224,42.5,218.2,13.4,231.5,13.4z"/>
</g>
</svg>
