<?xml version="1.0" encoding="utf-8"?>
<!-- Generator: Adobe Illustrator 19.1.0, SVG Export Plug-In . SVG Version: 6.00 Build 0)  -->
<svg version="1.1" id="Layer_1" xmlns="http://www.w3.org/2000/svg" xmlns:xlink="http://www.w3.org/1999/xlink" x="0px" y="0px"
	 viewBox="0 0 288 216" style="enable-background:new 0 0 288 216;" xml:space="preserve">
<style type="text/css">
	.st0{fill:none;stroke:#000000;stroke-miterlimit:10;}
	.st1{clip-path:url(#SVGID_2_);fill:none;stroke:#000000;stroke-miterlimit:10;}
	.st2{clip-path:url(#SVGID_4_);fill:none;stroke:#000000;stroke-miterlimit:10;}
	.st3{clip-path:url(#SVGID_6_);}
	.st4{clip-path:url(#SVGID_8_);fill:none;stroke:#000000;stroke-miterlimit:10;}
</style>
<g>
	<defs>
		<rect id="SVGID_7_" width="288" height="216"/>
	</defs>
	<clipPath id="SVGID_2_">
		<use xlink:href="#SVGID_7_"  style="overflow:visible;"/>
	</clipPath>
	<path class="st1" d="M298.1,66.3c0,0-20.4-15.2-45.6-35.3s-32.4,13.9-46,13.6s-9.7-36.5-66.4,0.9c-29,19.1-53.2,23.7-40.5,33.4
		c12.1,9.3,49.8,42.4,100,42.4c32.7,0,120.8-36.5,93.9-42.7c-9.6-2.2-39.1,4.4-83.9,6.2c-58.3,2.3-76.4-5.2-101-11.3
		c-16.3-4.1,37.5,2.7,91.9,3.9c42.8,0.9,86.2-3.3,95.5-7.4"/>
</g>
</svg>
