<?xml version="1.0" encoding="utf-8"?>
<!-- Generator: Adobe Illustrator 19.1.0, SVG Export Plug-In . SVG Version: 6.00 Build 0)  -->
<svg version="1.1" id="Layer_1" xmlns="http://www.w3.org/2000/svg" xmlns:xlink="http://www.w3.org/1999/xlink" x="0px" y="0px"
	 viewBox="0 0 360 288" style="enable-background:new 0 0 360 288;" xml:space="preserve">
<style type="text/css">
	.st0{fill:none;stroke:#000000;stroke-miterlimit:10;}
	.st1{clip-path:url(#SVGID_2_);}
	.st2{clip-path:url(#SVGID_4_);}
	.st3{clip-path:url(#SVGID_6_);}
	.st4{fill:none;stroke:#231F20;stroke-miterlimit:10;}
	.st5{clip-path:url(#SVGID_8_);}
	.st6{clip-path:url(#SVGID_10_);}
	.st7{clip-path:url(#SVGID_12_);}
	.st8{clip-path:url(#SVGID_14_);fill:none;stroke:#000000;stroke-miterlimit:10;}
	.st9{clip-path:url(#SVGID_16_);}
	.st10{clip-path:url(#SVGID_18_);}
</style>
<g>
	<defs>
		<rect id="SVGID_11_" x="0" y="0" width="360" height="288"/>
	</defs>
	<clipPath id="SVGID_2_">
		<use xlink:href="#SVGID_11_"  style="overflow:visible;"/>
	</clipPath>
	<g class="st1">
		<path class="st0" d="M141.6,139.7c6.9,5.6,11.8,8.6,15.4,9.8c3.6,1.3,5.7,0.8,7-0.6c2.6-2.8,1.7-9.1,1.6-12.3
			c-0.3-9.5,2.3-14.5-13.3-12.8c-11.7,1.3-17.4,2.8-18.6,5.3C132.5,131.6,135.7,134.9,141.6,139.7z"/>
		<path class="st0" d="M111.2,117.5c4.1-4,11.6-6.8,21.3-8.7c7.7-1.5,16.2-1,24.1-1.6c19.1-1.4,34.2,14.2,32.3,28.1
			c-1,6.9,2.8,16,0.8,21c-1.4,3.4-6.2,5.1-23.1,3.9c-0.8-0.1-1.6-0.1-2.5-0.2c-7.9-0.8-10.2,3.7-28.9-6.4
			c-10.7-5.8-16.7-11.7-20.6-17C108.3,128.1,106.5,122.2,111.2,117.5z"/>
		<path class="st0" d="M88.7,105.9c7.5-6.4,19.9-10.9,34.4-13.7c12.7-2.4,26.2-2.5,37.7-1.7c22.5,1.7,55.1,25.1,51.2,43.5
			c-2.3,10.7,4.8,22.7,3.2,29.8c-1.3,5.5-9,8.4-39.3,7.2c-1.4-0.1-2.9-0.1-4.5-0.2c-13.5-0.8-15.5,9.7-49.7-8.2
			c-19.4-10.2-29.3-20.2-34.4-29C80.5,121.7,80.6,112.8,88.7,105.9z"/>
		<path class="st0" d="M66.2,94.3c10.9-8.8,28.2-15,47.6-18.6c17.7-3.3,36.1-3.4,51.3-1.7c26,2.8,75.8,36,70.1,58.9
			c-3.6,14.5,7,29.4,5.6,38.5c-1.2,7.6-11.8,11.7-55.4,10.4c-2.1-0.1-4.3-0.1-6.5-0.2c-19.2-0.8-20.8,15.6-70.4-10.1
			c-28-14.6-42-28.6-48.2-40.9C52.6,115.3,54.8,103.5,66.2,94.3z"/>
		<path class="st0" d="M43.7,82.6C58,71.5,80.2,63.6,104.4,59c22.6-4.2,46.1-4.3,65-1.8c29.5,4,96.5,46.8,89.1,74.2
			c-5,18.2,9.1,36.1,8,47.3c-1,9.7-14.6,15-71.5,13.7c-2.7-0.1-5.6-0.1-8.5-0.2c-24.8-0.9-26.2,21.6-91.2-11.9
			c-36.7-19-54.8-37.1-62.1-52.9C24.6,109,28.9,94.2,43.7,82.6z"/>
		<path class="st0" d="M21.2,71C39,57.5,66,47.9,95.1,42.4c27.6-5.1,56.1-5.3,78.6-1.9c32.9,5.1,117.2,57.7,108,89.6
			c-6.4,22,11.3,42.8,10.4,56.1c-0.8,11.8-17.4,18.3-87.7,17c-3.4-0.1-6.9-0.1-10.5-0.2c-30.5-0.9-31.5,27.6-112-13.8
			C36.5,165.8,14.3,143.7,6,124.4C-3.4,102.6,3,84.8,21.2,71z"/>
		<path class="st0" d="M-1.3,59.3c21.1-15.8,53.1-27.2,87-33.5c32.6-6,66.2-6.3,92.2-1.9c36.4,6.1,137.9,68.5,126.9,105
			c-7.7,25.7,13.5,49.4,12.8,64.8c-0.6,13.9-20.1,21.5-103.8,20.3c-4-0.1-8.2-0.1-12.5-0.2c-36.2-0.9-36.8,33.5-132.7-15.7
			c-54.1-27.8-80.4-53.9-89.8-76.8C-31.4,96.2-22.8,75.5-1.3,59.3z"/>
		<path class="st0" d="M-23.8,47.7C0.8,29.5,37.6,16.4,76.4,9.2c37.6-7,76.2-7.3,105.9-2c39.9,7.2,158.6,79.4,145.9,120.4
			c-9.1,29.5,15.7,56.1,15.2,73.6c-0.4,16-22.9,24.8-119.9,23.6c-4.7-0.1-9.5-0.1-14.5-0.2c-41.8-1-42.2,39.5-153.5-17.5
			c-62.8-32.2-93.3-62.3-103.6-88.7C-59.4,89.9-48.7,66.2-23.8,47.7z"/>
		<path class="st0" d="M-46.3,36.1C-18.3,15.5,23.4,0.7,67-7.4c42.6-7.9,86.2-8.4,119.5-2.1c43.4,8.2,179.3,90.2,164.8,135.7
			c-10.6,33.2,17.8,62.8,17.6,82.3c-0.2,18.1-25.7,28.1-136,26.8c-5.3-0.1-10.8-0.1-16.5-0.3c-47.5-1.1-47.5,45.5-174.3-19.4
			c-71.4-36.5-106.1-70.7-117.4-100.6C-87.4,83.5-74.6,56.9-46.3,36.1z"/>
		<path class="st0" d="M-68.8,24.4C-37.4,1.5,9.2-15,57.6-24c47.5-8.8,96.2-9.4,133.1-2.1c46.9,9.3,199.9,101,183.7,151.1
			c-12,36.9,20,69.4,20,91.1c0,20.1-28.5,31.4-152.2,30.1c-5.9-0.1-12.1-0.1-18.5-0.3c-53.2-1.1-52.8,51.5-195.1-21.2
			c-80.1-40.9-119-79.1-131.3-112.6C-115.4,77.1-100.5,47.6-68.8,24.4z"/>
		<path class="st0" d="M-91.3,12.8C-56.4-12.4-5-30.7,48.3-40.6C100.8-50.3,154.5-51,195-42.8c50.5,10.3,220.6,111.9,202.7,166.5
			c-13.4,40.7,22.2,76.1,22.4,99.9c0.2,22.2-31.3,34.7-168.3,33.4c-6.6-0.1-13.4-0.2-20.5-0.3c-58.8-1.1-58.1,57.4-215.8-23.1
			C-73.3,188.2-116.4,146-129.6,109C-143.4,70.7-126.3,38.3-91.3,12.8z"/>
		<path class="st0" d="M-113.8,1.2c38.3-27.5,94.5-47.6,152.7-58.3c57.5-10.6,116.3-11.6,160.4-2.3c54,11.3,241.3,122.7,221.6,181.8
			c-14.8,44.4,24.4,82.7,24.8,108.6c0.4,24.3-34,37.9-184.4,36.7c-7.2-0.1-14.7-0.2-22.5-0.3c-64.5-1.2-63.5,63.4-236.6-24.9
			c-97.5-49.7-144.7-96-158.9-136.5C-171.4,64.3-152.2,29-113.8,1.2z"/>
		<path class="st0" d="M-136.3-10.5C-94.6-40.4-33.4-62.1,29.5-73.8c62.5-11.5,126.3-12.6,174-2.4c57.5,12.4,262,133.5,240.5,197.2
			c-16.2,48.1,26.6,89.4,27.2,117.4c0.6,26.4-36.8,41.2-200.6,39.9c-7.9-0.1-16-0.2-24.5-0.3c-70.2-1.2-68.8,69.4-257.4-26.8
			C-117.3,197.2-168.6,147-183.9,102.9C-199.4,58-178,19.6-136.3-10.5z"/>
		<path class="st0" d="M-158.8-22.1c45.1-32.3,111.1-55.7,178.9-68.2c67.4-12.4,136.3-13.7,187.7-2.4
			c61,13.4,282.6,144.4,259.5,212.6c-17.6,51.8,28.8,96.1,29.6,126.1c0.8,28.5-39.6,44.5-216.7,43.2c-8.5-0.1-17.3-0.2-26.5-0.3
			c-75.9-1.2-74.1,75.4-278.1-28.6C-139.2,201.7-194.8,147.4-211,99.8C-227.4,51.6-203.9,10.3-158.8-22.1z"/>
		<path class="st0" d="M-181.3-33.7c48.5-34.6,119.4-59.8,192.1-73.2c72.4-13.4,146.4-14.8,201.3-2.5
			C276.6-95,515.3,45.7,490.5,118.5c-19.1,55.5,30.9,102.7,32,134.9c1,30.6-42.4,47.8-232.8,46.5c-9.1-0.1-18.6-0.2-28.5-0.3
			c-81.5-1.3-79.5,81.3-298.9-30.5C-161.2,206.1-221,147.9-238.1,96.8C-255.4,45.2-229.8,1-181.3-33.7z"/>
		<path class="st0" d="M-203.8-45.4c51.9-37,127.7-63.9,205.2-78.2c77.4-14.3,156.4-16,214.9-2.6c68.1,15.4,323.9,166,297.3,243.3
			c-20.5,59.3,33.2,109.4,34.4,143.7c1.2,32.6-45.2,51-248.9,49.8c-9.8-0.1-19.9-0.2-30.5-0.3c-87.2-1.3-84.8,87.3-319.7-32.3
			c-132.2-67.3-196.2-129.6-214.3-184.3C-283.5,38.8-255.7-8.3-203.8-45.4z"/>
		<path class="st0" d="M220.7-142.8c71.6,16.5,344.7,176.9,316.3,258.7c-21.9,63,35.3,116,36.8,152.4c1.5,36.4-52.8,56.2-297.5,52.7
			c-92.9-1.3-90.1,93.3-340.4-34.2c-140.8-71.7-209-138-228.1-196.2C-311.5,32.4-281.6-17.7-226.2-57s136-67.9,218.3-83.1
			S158.6-157.1,220.7-142.8z"/>
	</g>
</g>
</svg>
