<?xml version="1.0" encoding="utf-8"?>
<!-- Generator: Adobe Illustrator 19.1.0, SVG Export Plug-In . SVG Version: 6.00 Build 0)  -->
<svg version="1.1" id="Layer_1" xmlns="http://www.w3.org/2000/svg" xmlns:xlink="http://www.w3.org/1999/xlink" x="0px" y="0px"
	 viewBox="0 0 640 640" style="enable-background:new 0 0 640 640;" xml:space="preserve">
<style type="text/css">
	.st0{fill:none;stroke:#000000;stroke-miterlimit:10;}
	.st1{fill:none;stroke:#231F20;stroke-width:0.5;stroke-miterlimit:10;}
	.st2{fill:none;}
	.st3{font-family:'DIN-Regular';}
	.st4{font-size:38.8943px;}
	.st5{fill:none;stroke:#231F20;stroke-miterlimit:10;}
	.st6{clip-path:url(#SVGID_2_);}
	.st7{fill:#202020;}
	.st8{clip-path:url(#SVGID_4_);}
	.st9{clip-path:url(#SVGID_6_);}
</style>
<g>
	<circle class="st1" cx="321.9" cy="322.9" r="311.2"/>
	<circle class="st1" cx="321.9" cy="322.9" r="175"/>
	<path class="st1" d="M516.4,322.9c0-107.4-87.1-194.5-194.5-194.5s-194.5,87.1-194.5,194.5s87.1,194.5,194.5,194.5
		S516.4,430.3,516.4,322.9z"/>
	<circle class="st1" cx="321.9" cy="322.9" r="252.8"/>
	<path class="st1" d="M516.4,322.9c0-107.4-87.1-194.5-194.5-194.5s-194.5,87.1-194.5,194.5c0,107.4,87.1,194.5,194.5,194.5
		S516.4,430.3,516.4,322.9z"/>
	<circle class="st1" cx="321.9" cy="322.9" r="136.1"/>
	<g>
		<line class="st1" x1="12.6" y1="356.4" x2="631.3" y2="289.3"/>
		<line class="st1" x1="12.6" y1="356.4" x2="631.3" y2="289.3"/>
		<line class="st1" x1="12.6" y1="356.4" x2="631.3" y2="289.3"/>
		<line class="st1" x1="12.6" y1="356.4" x2="631.3" y2="289.3"/>
		<line class="st1" x1="12.6" y1="356.4" x2="631.3" y2="289.3"/>
		<line class="st1" x1="12.6" y1="356.4" x2="631.3" y2="289.3"/>
		<line class="st1" x1="12.6" y1="342.8" x2="631.3" y2="302.9"/>
		<line class="st1" x1="12.6" y1="329.2" x2="631.2" y2="316.5"/>
		<line class="st1" x1="12.7" y1="315.7" x2="631.2" y2="330.1"/>
		<line class="st1" x1="12.7" y1="302.1" x2="631.2" y2="343.6"/>
		<line class="st1" x1="12.7" y1="288.5" x2="631.2" y2="357.2"/>
	</g>
	<g>
		<line class="st1" x1="288.4" y1="13.5" x2="355.5" y2="632.2"/>
		<line class="st1" x1="288.4" y1="13.5" x2="355.5" y2="632.2"/>
		<line class="st1" x1="288.4" y1="13.5" x2="355.5" y2="632.2"/>
		<line class="st1" x1="288.4" y1="13.5" x2="355.5" y2="632.2"/>
		<line class="st1" x1="288.4" y1="13.5" x2="355.5" y2="632.2"/>
		<line class="st1" x1="288.4" y1="13.5" x2="355.5" y2="632.2"/>
		<line class="st1" x1="302" y1="13.5" x2="341.9" y2="632.2"/>
		<line class="st1" x1="315.6" y1="13.5" x2="328.3" y2="632.2"/>
		<line class="st1" x1="329.1" y1="13.6" x2="314.7" y2="632.1"/>
		<line class="st1" x1="342.7" y1="13.6" x2="301.2" y2="632.1"/>
		<line class="st1" x1="356.3" y1="13.6" x2="287.6" y2="632.1"/>
	</g>
	<circle class="st1" cx="321.9" cy="322.9" r="58.3"/>
	<circle class="st1" cx="321.9" cy="322.9" r="77.8"/>
	<circle class="st1" cx="321.9" cy="322.9" r="38.9"/>
	<circle class="st1" cx="321.9" cy="322.9" r="19.4"/>
	<g>
		<text transform="matrix(0.7071 -0.7071 0.7071 0.7071 118.5305 162.2779)" class="st2 st3 st4">200</text>
		<text transform="matrix(0.7071 -0.7071 0.7071 0.7071 242.2916 286.0401)" class="st2 st3 st4">500</text>
		<text transform="matrix(0.7071 -0.7071 0.7071 0.7071 159.7871 203.5346)" class="st2 st3 st4">300</text>
		<text transform="matrix(0.7071 -0.7071 0.7071 0.7071 201.042 244.7847)" class="st2 st3 st4">400</text>
	</g>
</g>
<g>
	<g>
		<defs>
			<path id="SVGID_1_" d="M95.7,856.7c125-125,327.6-125,452.5,0c125,125,125,327.6,0,452.5c-125,125-327.6,125-452.5,0
				C-29.3,1184.3-29.3,981.7,95.7,856.7z"/>
		</defs>
		<clipPath id="SVGID_2_">
			<use xlink:href="#SVGID_1_"  style="overflow:visible;"/>
		</clipPath>
		<g class="st6">
			<g>
				<line class="st1" x1="-33.4" y1="638.8" x2="677.3" y2="1527.2"/>
			</g>
			<g>
				<line class="st1" x1="678.5" y1="639.7" x2="-34.6" y2="1526.3"/>
				<line class="st1" x1="678.5" y1="639.7" x2="-34.6" y2="1526.3"/>
				<line class="st1" x1="678.5" y1="639.7" x2="-34.6" y2="1526.3"/>
				<line class="st1" x1="678.5" y1="639.7" x2="-34.6" y2="1526.3"/>
				<line class="st1" x1="678.5" y1="639.7" x2="-34.6" y2="1526.3"/>
				<line class="st1" x1="678.5" y1="639.7" x2="-34.6" y2="1526.3"/>
			</g>
		</g>
	</g>
</g>
</svg>
