<?xml version="1.0" encoding="utf-8"?>
<!-- Generator: Adobe Illustrator 19.1.0, SVG Export Plug-In . SVG Version: 6.00 Build 0)  -->
<svg version="1.1" id="Layer_1" xmlns="http://www.w3.org/2000/svg" xmlns:xlink="http://www.w3.org/1999/xlink" x="0px" y="0px"
	 viewBox="0 0 315 288" style="enable-background:new 0 0 315 288;" xml:space="preserve">
<style type="text/css">
	.st0{fill:none;stroke:#000000;stroke-miterlimit:10;}
	.st1{clip-path:url(#SVGID_2_);}
	.st2{clip-path:url(#SVGID_4_);}
	.st3{clip-path:url(#SVGID_6_);}
	.st4{fill:none;stroke:#231F20;stroke-miterlimit:10;}
	.st5{clip-path:url(#SVGID_8_);}
	.st6{clip-path:url(#SVGID_10_);}
	.st7{clip-path:url(#SVGID_12_);}
	.st8{clip-path:url(#SVGID_14_);fill:none;stroke:#000000;stroke-miterlimit:10;}
	.st9{clip-path:url(#SVGID_16_);}
	.st10{clip-path:url(#SVGID_18_);}
</style>
<g>
	<defs>
		<rect id="SVGID_5_" x="0.7" y="0" width="314.4" height="288"/>
	</defs>
	<clipPath id="SVGID_2_">
		<use xlink:href="#SVGID_5_"  style="overflow:visible;"/>
	</clipPath>
	<g class="st1">
		<g>
			<polyline class="st4" points="69.5,170.9 76.7,182.9 83.9,170.9 91.1,182.9 98.3,170.9 105.4,182.9 112.6,170.9 119.8,182.9 
				127,170.9 134.2,182.9 141.4,170.9 148.6,182.9 155.7,170.9 162.9,182.9 170.1,170.9 177.3,182.9 184.5,170.9 191.7,182.9 
				198.9,170.9 206,182.9 213.2,170.9 220.4,182.9 227.6,170.9 234.8,182.9 242,170.9 249.2,182.9 256.4,170.9 263.6,182.9 
				270.8,170.9 277.9,182.9 285.1,170.9 292.3,182.9 299.5,170.9 306.7,182.9 313.9,170.9 321.1,182.9 			"/>
		</g>
		<polygon class="st4" points="131.6,63.5 1.9,288.5 73.6,288.5 167.5,125.8 		"/>
		<polygon class="st4" points="73.6,288.5 231.2,15.6 388.7,288.5 		"/>
	</g>
</g>
<g>
	<defs>
		<rect id="SVGID_11_" x="-504" y="360" width="360" height="288"/>
	</defs>
	<clipPath id="SVGID_4_">
		<use xlink:href="#SVGID_11_"  style="overflow:visible;"/>
	</clipPath>
	<g class="st2">
		<path class="st0" d="M-685.3,326.3c48.5-34.6,119.4-59.8,192.1-73.2c72.4-13.4,146.4-14.8,201.3-2.5
			C-227.4,265,11.3,405.7-13.5,478.5c-19.1,55.5,30.9,102.7,32,134.9c1,30.6-42.4,47.8-232.8,46.5c-9.1-0.1-18.6-0.2-28.5-0.3
			c-81.5-1.3-79.5,81.3-298.9-30.5C-665.2,566.1-725,507.9-742.1,456.8C-759.4,405.2-733.8,361-685.3,326.3z"/>
		<path class="st0" d="M-707.8,314.6c51.9-37,127.7-63.9,205.2-78.2c77.4-14.3,156.4-16,214.9-2.6c68.1,15.4,323.9,166,297.3,243.3
			c-20.5,59.3,33.2,109.4,34.4,143.7c1.2,32.6-45.2,51-248.9,49.8c-9.8-0.1-19.9-0.2-30.5-0.3c-87.2-1.3-84.8,87.3-319.7-32.3
			c-132.2-67.3-196.2-129.6-214.3-184.3C-787.5,398.8-759.7,351.7-707.8,314.6z"/>
		<path class="st0" d="M-283.3,217.2c71.6,16.5,344.7,176.9,316.3,258.7c-21.9,63,35.3,116,36.8,152.4S16.9,684.5-227.8,681
			c-92.9-1.3-90.1,93.3-340.4-34.2c-140.8-71.7-209-138-228.1-196.2c-19.1-58.2,10.8-108.3,66.1-147.6s136-67.9,218.3-83.1
			S-345.4,202.9-283.3,217.2z"/>
	</g>
</g>
</svg>
