<?xml version="1.0" encoding="utf-8"?>
<!-- Generator: Adobe Illustrator 19.1.0, SVG Export Plug-In . SVG Version: 6.00 Build 0)  -->
<svg version="1.1" id="Layer_1" xmlns="http://www.w3.org/2000/svg" xmlns:xlink="http://www.w3.org/1999/xlink" x="0px" y="0px"
	 viewBox="0 0 1280 640" style="enable-background:new 0 0 1280 640;" xml:space="preserve">
<style type="text/css">
	.st0{fill:none;stroke:#000000;stroke-miterlimit:10;}
	.st1{fill:none;stroke:#231F20;stroke-width:0.5;stroke-miterlimit:10;}
	.st2{fill:none;}
	.st3{fill:none;stroke:#231F20;stroke-miterlimit:10;}
	.st4{clip-path:url(#SVGID_2_);}
	.st5{fill:#202020;}
	.st6{clip-path:url(#SVGID_4_);}
	.st7{clip-path:url(#SVGID_6_);}
</style>
<g>
	<defs>
		<rect id="SVGID_3_" x="0.1" width="1279.9" height="639.4"/>
	</defs>
	<clipPath id="SVGID_2_">
		<use xlink:href="#SVGID_3_"  style="overflow:visible;"/>
	</clipPath>
	<g class="st4">
		<line class="st0" x1="0.5" y1="639" x2="0.5" y2="-800"/>
		<line class="st0" x1="0.1" y1="639.4" x2="61.4" y2="-769.4"/>
		<line class="st0" x1="0.1" y1="639.4" x2="122.7" y2="-738.7"/>
		<line class="st0" x1="0.1" y1="639.4" x2="183.9" y2="-708.1"/>
		<line class="st0" x1="0" y1="639.5" x2="245.2" y2="-677.4"/>
		<line class="st0" x1="0" y1="639.5" x2="306.5" y2="-646.8"/>
		<line class="st0" x1="0" y1="639.5" x2="367.8" y2="-616.1"/>
		<line class="st0" x1="0" y1="639.5" x2="429" y2="-585.5"/>
		<line class="st0" x1="-0.1" y1="639.6" x2="490.3" y2="-554.8"/>
		<line class="st0" x1="-0.1" y1="639.6" x2="551.6" y2="-524.2"/>
		<line class="st0" x1="-0.1" y1="639.6" x2="612.9" y2="-493.5"/>
		<line class="st0" x1="-0.1" y1="639.6" x2="674.1" y2="-462.9"/>
		<line class="st0" x1="-0.2" y1="639.7" x2="735.4" y2="-432.2"/>
		<line class="st0" x1="-0.2" y1="639.7" x2="796.7" y2="-401.6"/>
		<line class="st0" x1="-0.2" y1="639.7" x2="858" y2="-370.9"/>
		<line class="st0" x1="-0.2" y1="639.7" x2="919.2" y2="-340.3"/>
		<line class="st0" x1="-0.3" y1="639.8" x2="980.5" y2="-309.6"/>
		<line class="st0" x1="-0.3" y1="639.8" x2="1041.8" y2="-279"/>
		<line class="st0" x1="-0.3" y1="639.8" x2="1103.1" y2="-248.3"/>
		<line class="st0" x1="-0.3" y1="639.8" x2="1164.3" y2="-217.7"/>
		<line class="st0" x1="-0.4" y1="639.9" x2="1225.6" y2="-187"/>
		<line class="st0" x1="-0.4" y1="639.9" x2="1286.9" y2="-156.4"/>
		<line class="st0" x1="-0.4" y1="639.9" x2="1348.2" y2="-125.7"/>
		<line class="st0" x1="-0.4" y1="639.9" x2="1409.4" y2="-95.1"/>
		<line class="st0" x1="-0.4" y1="639.9" x2="1470.7" y2="-64.4"/>
		<line class="st0" x1="-0.5" y1="640" x2="1532" y2="-33.8"/>
		<line class="st0" x1="-0.5" y1="640" x2="1593.2" y2="-3.1"/>
		<line class="st0" x1="-0.5" y1="640" x2="1654.5" y2="27.5"/>
		<line class="st0" x1="-0.5" y1="640" x2="1715.8" y2="58.2"/>
		<line class="st0" x1="-0.6" y1="640.1" x2="1777.1" y2="88.8"/>
		<line class="st0" x1="-0.6" y1="640.1" x2="1838.3" y2="119.5"/>
		<line class="st0" x1="-0.6" y1="640.1" x2="1899.6" y2="150.1"/>
		<line class="st0" x1="-0.6" y1="640.1" x2="1960.9" y2="180.8"/>
		<line class="st0" x1="-0.7" y1="640.2" x2="2022.2" y2="211.4"/>
		<line class="st0" x1="-0.7" y1="640.2" x2="2083.4" y2="242.1"/>
		<line class="st0" x1="-0.7" y1="640.2" x2="2144.7" y2="272.7"/>
		<line class="st0" x1="-0.7" y1="640.2" x2="2206" y2="303.4"/>
		<line class="st0" x1="-0.8" y1="640.3" x2="2267.3" y2="334"/>
		<line class="st0" x1="-0.8" y1="640.3" x2="2328.5" y2="364.7"/>
		<line class="st0" x1="-0.8" y1="640.3" x2="2389.8" y2="395.3"/>
		<line class="st0" x1="-0.8" y1="640.3" x2="2451.1" y2="426"/>
		<line class="st0" x1="-0.9" y1="640.4" x2="2512.4" y2="456.6"/>
		<line class="st0" x1="-0.9" y1="640.4" x2="2573.6" y2="487.3"/>
		<line class="st0" x1="-0.9" y1="640.4" x2="2634.9" y2="517.9"/>
		<line class="st0" x1="-0.9" y1="640.4" x2="2696.2" y2="548.6"/>
		<line class="st0" x1="-1" y1="640.5" x2="2757.5" y2="579.2"/>
		<line class="st0" x1="-1" y1="640.5" x2="2818.7" y2="609.9"/>
	</g>
</g>
<g>
	<defs>
		<rect id="SVGID_5_" x="-1023.9" width="639.9" height="639.4"/>
	</defs>
	<clipPath id="SVGID_4_">
		<use xlink:href="#SVGID_5_"  style="overflow:visible;"/>
	</clipPath>
	<g class="st6">
		<line class="st0" x1="-1024.3" y1="640.2" x2="32.1" y2="256.4"/>
		<line class="st0" x1="-1024.3" y1="640.2" x2="80.1" y2="304.4"/>
		<line class="st0" x1="-1024.3" y1="640.3" x2="128.1" y2="352.4"/>
		<line class="st0" x1="-1024.3" y1="640.3" x2="176.1" y2="400.4"/>
		<line class="st0" x1="-1024.4" y1="640.4" x2="224.1" y2="448.4"/>
		<line class="st0" x1="-1024.4" y1="640.4" x2="272.1" y2="496.5"/>
		<line class="st0" x1="-1024.4" y1="640.4" x2="320.1" y2="544.5"/>
		<line class="st0" x1="-1024.4" y1="640.5" x2="368.1" y2="592.5"/>
	</g>
</g>
</svg>
