<?xml version="1.0" encoding="utf-8"?>
<!-- Generator: Adobe Illustrator 19.1.0, SVG Export Plug-In . SVG Version: 6.00 Build 0)  -->
<svg version="1.1" id="Layer_1" xmlns="http://www.w3.org/2000/svg" xmlns:xlink="http://www.w3.org/1999/xlink" x="0px" y="0px"
	 viewBox="0 0 297 144" style="enable-background:new 0 0 297 144;" xml:space="preserve">
<style type="text/css">
	.st0{fill:none;stroke:#000000;stroke-miterlimit:10;}
	.st1{clip-path:url(#SVGID_2_);fill:none;stroke:#000000;stroke-miterlimit:10;}
	.st2{clip-path:url(#SVGID_4_);fill:none;stroke:#000000;stroke-miterlimit:10;}
	.st3{clip-path:url(#SVGID_6_);}
	.st4{clip-path:url(#SVGID_8_);fill:none;stroke:#000000;stroke-miterlimit:10;}
</style>
<path class="st0" d="M120.3,39.2c22.8-0.8,46.5,16.6,46.5,35.7s-19.9,30.3-44.4,29.9c-24.5-0.4-30.3-15-32-33.2S97,40,120.3,39.2z"
	/>
<path class="st0" d="M134.2,13.5c21.6-0.6,79.3,12,78.5,61.9c-0.8,49.8-49.4,55.2-68.5,55.2s-61-5.4-59.8-59
	C85.6,18,119.2,13.9,134.2,13.5z"/>
<path class="st0" d="M153.2,64.2c7.7-0.5,11.3,5.2,11.3,10.3s-5.5,9.4-11,9.4c-5.5,0-9.7-5.2-10.7-11.6
	C141.9,65.8,148.4,64.5,153.2,64.2z"/>
</svg>
