<?xml version="1.0" encoding="utf-8"?>
<!-- Generator: Adobe Illustrator 19.1.0, SVG Export Plug-In . SVG Version: 6.00 Build 0)  -->
<svg version="1.1" id="Layer_1" xmlns="http://www.w3.org/2000/svg" xmlns:xlink="http://www.w3.org/1999/xlink" x="0px" y="0px"
	 viewBox="0 0 287.3 287.3" style="enable-background:new 0 0 287.3 287.3;" xml:space="preserve">
<style type="text/css">
	.st0{fill:none;stroke:#000000;stroke-miterlimit:10;}
	.st1{clip-path:url(#SVGID_2_);fill:none;stroke:#000000;stroke-miterlimit:10;}
	.st2{clip-path:url(#SVGID_4_);fill:none;stroke:#000000;stroke-miterlimit:10;}
	.st3{clip-path:url(#SVGID_6_);}
	.st4{clip-path:url(#SVGID_8_);fill:none;stroke:#000000;stroke-miterlimit:10;}
	.st5{clip-path:url(#SVGID_10_);}
	.st6{clip-path:url(#SVGID_12_);fill:none;stroke:#000000;stroke-miterlimit:10;}
	.st7{clip-path:url(#SVGID_14_);fill:none;stroke:#000000;stroke-miterlimit:10;}
	.st8{clip-path:url(#SVGID_16_);fill:none;stroke:#000000;stroke-miterlimit:10;}
	.st9{clip-path:url(#SVGID_18_);fill:none;stroke:#000000;stroke-miterlimit:10;}
	.st10{clip-path:url(#SVGID_20_);}
	.st11{clip-path:url(#SVGID_22_);fill:none;stroke:#000000;stroke-miterlimit:10;}
	.st12{clip-path:url(#SVGID_24_);fill:none;stroke:#000000;stroke-miterlimit:10;}
	.st13{clip-path:url(#SVGID_26_);fill:none;stroke:#000000;stroke-miterlimit:10;}
	.st14{clip-path:url(#SVGID_28_);fill:none;stroke:#000000;stroke-miterlimit:10;}
	.st15{clip-path:url(#SVGID_30_);fill:none;stroke:#000000;stroke-miterlimit:10;}
</style>
<g>
	<defs>
		<rect id="SVGID_9_" width="287.3" height="287.3"/>
	</defs>
	<clipPath id="SVGID_2_">
		<use xlink:href="#SVGID_9_"  style="overflow:visible;"/>
	</clipPath>
	<g style="clip-path:url(#SVGID_2_);">
		<path class="st0" d="M143.6,111.2c-2.1-18,11.1-19.2,24.8-11.2c13.7,8,27.9,25.1,27.9,43.6s-10.2,36.6-21.8,36.9
			c-5.8,0.2-12-4.1-17.5-14.9C151.4,154.8,146.6,137.4,143.6,111.2z"/>
		<path class="st0" d="M121.7,87.7c10.2-19.4,28-23.4,48-19.8c29.4,5.3,54.5,23.1,55.4,53.5c0.5,17,9,37.6,10.8,54.6
			c1.9,17.6-3.3,30.6-28.4,33.6c-4.8,0.6-10.1,1.3-15.6,1.4c-21,0.4-45.3-3.8-61.3-20.5c-12.3-12.9-20.4-30.9-22.1-51.1
			C107.1,121.6,113.2,104.1,121.7,87.7z"/>
		<path class="st0" d="M99.8,64.1c19.9-21.3,45.6-25.9,71.2-28.5c45.5-4.6,81.2,21,83,63.4c1.1,26.7,19.5,60.6,25.9,88.5
			c6.5,28.4,0.9,49.6-44.5,52.3c-7.9,0.5-16.7,1.2-25.8,1.3c-36.2,0.7-79.1-3.1-105-26.1c-21.7-19.3-34.5-47-35.6-76.3
			C67.9,111.6,79.7,85.6,99.8,64.1z"/>
		<path class="st0" d="M77.9,40.5c29.4-23.7,62.8-35,94.4-37.1c62-4.2,108.1,19,110.6,73.3c1.8,36.4,29.9,83.7,40.9,122.4
			c11.1,39.1,5,68.8-60.6,71.1c-11,0.4-23.2,1-36,1.3c-51.4,0.9-112.9-2.3-148.7-31.7c-31.2-25.5-48.5-63.1-49.1-101.5
			C28.8,101.5,45.8,66.4,77.9,40.5z"/>
		<path class="st0" d="M56,17c39-26.5,80.1-41,117.6-45.7c78-9.7,134.8,17,138.2,83.2c2.5,46,40.2,106.7,55.9,156.3
			c15.6,49.9,9.1,88-76.7,89.8c-14.1,0.3-29.8,0.9-46.3,1.2c-66.5,1.1-146.7-1.5-192.5-37.3c-40.7-31.8-62.5-79.2-62.6-126.7
			C-10.4,91.4,11.9,46.9,56,17z"/>
		<path class="st0" d="M34.1-6.6C82.8-36,131.4-53.8,174.9-60.9c93.9-15.5,161.6,15,165.8,93.1c3.1,55.7,50.7,129.8,71,190.2
			C432,283,424.9,329.7,318.9,331c-17.2,0.2-36.3,0.8-56.5,1.2c-81.7,1.4-180.5-0.7-236.2-42.9c-50.2-38-76.5-95.3-76.1-151.8
			C-49.4,81.4-21.9,27.2,34.1-6.6z"/>
		<path class="st0" d="M12.2-30.2c187.8-103.9,350-90.7,357.4,40.1c3.7,65.4,61.1,152.9,86,224.2c24.9,71.3,17.4,126.5-108.9,127.3
			C244,362,81.8,374.5,0,313.9c-59.7-44.2-90.6-111.4-89.6-177S-55.7,7.4,12.2-30.2z"/>
	</g>
</g>
</svg>
