<?xml version="1.0" encoding="utf-8"?>
<!-- Generator: Adobe Illustrator 19.1.0, SVG Export Plug-In . SVG Version: 6.00 Build 0)  -->
<svg version="1.1" id="Layer_1" xmlns="http://www.w3.org/2000/svg" xmlns:xlink="http://www.w3.org/1999/xlink" x="0px" y="0px"
	 viewBox="0 0 216 288" style="enable-background:new 0 0 216 288;" xml:space="preserve">
<style type="text/css">
	.st0{fill:none;stroke:#000000;stroke-miterlimit:10;}
	.st1{clip-path:url(#SVGID_2_);fill:none;stroke:#000000;stroke-miterlimit:10;}
	.st2{clip-path:url(#SVGID_4_);fill:none;stroke:#000000;stroke-miterlimit:10;}
	.st3{clip-path:url(#SVGID_6_);}
	.st4{clip-path:url(#SVGID_8_);fill:none;stroke:#000000;stroke-miterlimit:10;}
	.st5{clip-path:url(#SVGID_10_);}
	.st6{clip-path:url(#SVGID_12_);fill:none;stroke:#000000;stroke-miterlimit:10;}
	.st7{clip-path:url(#SVGID_14_);fill:none;stroke:#000000;stroke-miterlimit:10;}
	.st8{clip-path:url(#SVGID_16_);fill:none;stroke:#000000;stroke-miterlimit:10;}
	.st9{clip-path:url(#SVGID_18_);fill:none;stroke:#000000;stroke-miterlimit:10;}
	.st10{clip-path:url(#SVGID_20_);}
	.st11{clip-path:url(#SVGID_22_);fill:none;stroke:#000000;stroke-miterlimit:10;}
	.st12{clip-path:url(#SVGID_24_);fill:none;stroke:#000000;stroke-miterlimit:10;}
	.st13{clip-path:url(#SVGID_26_);fill:none;stroke:#000000;stroke-miterlimit:10;}
	.st14{clip-path:url(#SVGID_28_);fill:none;stroke:#000000;stroke-miterlimit:10;}
	.st15{clip-path:url(#SVGID_30_);fill:none;stroke:#000000;stroke-miterlimit:10;}
</style>
<g>
	<defs>
		<rect id="SVGID_25_" width="216" height="288"/>
	</defs>
	<clipPath id="SVGID_2_">
		<use xlink:href="#SVGID_25_"  style="overflow:visible;"/>
	</clipPath>
	<path class="st1" d="M17,70c21,2,29,11,28.6,26.7c-0.4,15.7-9.3,25-25.4,25.4s-28.6-6.5-30.2-26S7.5,69.1,17,70z"/>
	<path class="st1" d="M103.3,110.9c23.7,1.1,35.4,5.6,35.4,35.8s-9.7,31.8-31,34.2c-21.3,2.4-40.7-11.3-41.5-39.8
		C65.4,112.5,93.2,110.4,103.3,110.9z"/>
	<path class="st1" d="M30.7,157.1c14.3,2.5,14.9,4.4,15,14c0.1,11.7-6.1,13.4-15,13.4s-13-4.4-12.9-13.3
		C17.8,162.3,22.5,155.6,30.7,157.1z"/>
	<path class="st1" d="M120.2-20.8c44.3,0.5,47,13.7,47.3,59.7c0.4,45.7-26.4,43.7-67,43.7s-37-33.8-36.2-60.4
		C65-4.3,81.1-21.2,120.2-20.8z"/>
</g>
</svg>
