<?xml version="1.0" encoding="utf-8"?>
<!-- Generator: Adobe Illustrator 19.1.0, SVG Export Plug-In . SVG Version: 6.00 Build 0)  -->
<svg version="1.1" id="Layer_1" xmlns="http://www.w3.org/2000/svg" xmlns:xlink="http://www.w3.org/1999/xlink" x="0px" y="0px"
	 viewBox="0 0 360 288" style="enable-background:new 0 0 360 288;" xml:space="preserve">
<style type="text/css">
	.st0{fill:none;stroke:#000000;stroke-miterlimit:10;}
	.st1{clip-path:url(#SVGID_2_);fill:none;stroke:#000000;stroke-miterlimit:10;}
	.st2{clip-path:url(#SVGID_4_);fill:none;stroke:#000000;stroke-miterlimit:10;}
	.st3{clip-path:url(#SVGID_6_);}
	.st4{clip-path:url(#SVGID_8_);fill:none;stroke:#000000;stroke-miterlimit:10;}
</style>
<path class="st0" d="M179.1,93.1c18.8-1.3,42.8-20.1,60-21c19.8-1,30.2,26.8,26.9,51.5c-8.8,66.1-40.7,102.3-73.8,102.2
	c-7.9,0-13.6-9.2-20.1-9.2c-8.5,0.1-5.5,10.5-20.7,9.2c-23-2-59.7-34.7-61.8-103.6c-1.1-34.4,20.8-49.2,39.4-48.6
	C147.8,74.3,163,94.2,179.1,93.1z"/>
<path class="st0" d="M180,80.7c0,0,0.6-55,24-38"/>
</svg>
