<?xml version="1.0" encoding="utf-8"?>
<!-- Generator: Adobe Illustrator 19.1.0, SVG Export Plug-In . SVG Version: 6.00 Build 0)  -->
<svg version="1.1" id="Layer_1" xmlns="http://www.w3.org/2000/svg" xmlns:xlink="http://www.w3.org/1999/xlink" x="0px" y="0px"
	 viewBox="0 0 432 216" style="enable-background:new 0 0 432 216;" xml:space="preserve">
<style type="text/css">
	.st0{fill:none;stroke:#000000;stroke-miterlimit:10;}
	.st1{clip-path:url(#SVGID_2_);}
	.st2{clip-path:url(#SVGID_4_);}
	.st3{clip-path:url(#SVGID_6_);}
	.st4{fill:none;stroke:#231F20;stroke-miterlimit:10;}
	.st5{clip-path:url(#SVGID_8_);}
	.st6{clip-path:url(#SVGID_10_);}
	.st7{clip-path:url(#SVGID_12_);}
	.st8{clip-path:url(#SVGID_14_);fill:none;stroke:#000000;stroke-miterlimit:10;}
	.st9{clip-path:url(#SVGID_16_);}
	.st10{clip-path:url(#SVGID_18_);}
</style>
<g>
	<g>
		<line class="st0" x1="0" y1="126.5" x2="432" y2="126.5"/>
		<line class="st0" x1="0" y1="135.5" x2="432" y2="135.5"/>
		<line class="st0" x1="0" y1="144.5" x2="432" y2="144.5"/>
		<line class="st0" x1="0" y1="153.5" x2="432" y2="153.5"/>
		<line class="st0" x1="0" y1="162.5" x2="432" y2="162.5"/>
		<line class="st0" x1="0" y1="171.5" x2="432" y2="171.5"/>
		<line class="st0" x1="0" y1="180.5" x2="432" y2="180.5"/>
		<line class="st0" x1="0" y1="189.5" x2="432" y2="189.5"/>
		<line class="st0" x1="0" y1="198.5" x2="432" y2="198.5"/>
		<line class="st0" x1="0" y1="207.5" x2="432" y2="207.5"/>
	</g>
	<path class="st0" d="M288,126c0-39.8-32.2-72-72-72s-72,32.2-72,72"/>
</g>
<g>
	<defs>
		<rect id="SVGID_11_" x="504" y="360" width="360" height="288"/>
	</defs>
	<clipPath id="SVGID_2_">
		<use xlink:href="#SVGID_11_"  style="overflow:visible;"/>
	</clipPath>
	<g class="st1">
		<path class="st0" d="M724.7,217.2c71.6,16.5,344.7,176.9,316.3,258.7c-21.9,63,35.3,116,36.8,152.4c1.5,36.4-52.8,56.2-297.5,52.7
			c-92.9-1.3-90.1,93.3-340.4-34.2c-140.8-71.7-209-138-228.1-196.2s10.8-108.3,66.1-147.6s136-67.9,218.3-83.1
			S662.6,202.9,724.7,217.2z"/>
	</g>
</g>
</svg>
