<?xml version="1.0" encoding="utf-8"?>
<!-- Generator: Adobe Illustrator 19.1.0, SVG Export Plug-In . SVG Version: 6.00 Build 0)  -->
<svg version="1.1" id="Layer_1" xmlns="http://www.w3.org/2000/svg" xmlns:xlink="http://www.w3.org/1999/xlink" x="0px" y="0px"
	 viewBox="0 0 432 288" style="enable-background:new 0 0 432 288;" xml:space="preserve">
<style type="text/css">
	.st0{fill:none;stroke:#000000;stroke-miterlimit:10;}
	.st1{clip-path:url(#SVGID_2_);}
	.st2{clip-path:url(#SVGID_4_);}
	.st3{clip-path:url(#SVGID_6_);}
	.st4{fill:none;stroke:#231F20;stroke-miterlimit:10;}
	.st5{clip-path:url(#SVGID_8_);}
	.st6{clip-path:url(#SVGID_10_);}
	.st7{clip-path:url(#SVGID_12_);}
	.st8{clip-path:url(#SVGID_14_);fill:none;stroke:#000000;stroke-miterlimit:10;}
	.st9{clip-path:url(#SVGID_16_);}
	.st10{clip-path:url(#SVGID_18_);}
</style>
<g>
	<line class="st0" x1="267.7" y1="144.2" x2="432" y2="144.2"/>
	<line class="st0" x1="0.3" y1="144.2" x2="164.5" y2="144.2"/>
	<circle class="st0" cx="216.1" cy="144.2" r="51.6"/>
</g>
<g>
	<defs>
		<rect id="SVGID_11_" x="0" y="360" width="360" height="288"/>
	</defs>
	<clipPath id="SVGID_2_">
		<use xlink:href="#SVGID_11_"  style="overflow:visible;"/>
	</clipPath>
	<g class="st1">
		<path class="st0" d="M-136.3,349.5c41.7-29.9,102.8-51.6,165.8-63.3c62.5-11.5,126.3-12.6,174-2.4
			c57.5,12.4,262,133.5,240.5,197.2c-16.2,48.1,26.6,89.4,27.2,117.4c0.6,26.4-36.8,41.2-200.6,39.9c-7.9-0.1-16-0.2-24.5-0.3
			c-70.2-1.2-68.8,69.4-257.4-26.8C-117.3,557.2-168.6,507-183.9,462.9C-199.4,418-178,379.6-136.3,349.5z"/>
		<path class="st0" d="M-158.8,337.9c45.1-32.3,111.1-55.7,178.9-68.2c67.4-12.4,136.3-13.7,187.7-2.4
			c61,13.4,282.6,144.4,259.5,212.6c-17.6,51.8,28.8,96.1,29.6,126.1c0.8,28.5-39.6,44.5-216.7,43.2c-8.5-0.1-17.3-0.2-26.5-0.3
			c-75.9-1.2-74.1,75.4-278.1-28.6C-139.2,561.7-194.8,507.4-211,459.8C-227.4,411.6-203.9,370.3-158.8,337.9z"/>
		<path class="st0" d="M-181.3,326.3c48.5-34.6,119.4-59.8,192.1-73.2c72.4-13.4,146.4-14.8,201.3-2.5
			c64.5,14.4,303.2,155.2,278.4,227.9c-19.1,55.5,30.9,102.7,32,134.9c1,30.6-42.4,47.8-232.8,46.5c-9.1-0.1-18.6-0.2-28.5-0.3
			c-81.5-1.3-79.5,81.3-298.9-30.5C-161.2,566.1-221,507.9-238.1,456.8C-255.4,405.2-229.8,361-181.3,326.3z"/>
		<path class="st0" d="M-203.8,314.6c51.9-37,127.7-63.9,205.2-78.2c77.4-14.3,156.4-16,214.9-2.6c68.1,15.4,323.9,166,297.3,243.3
			c-20.5,59.3,33.2,109.4,34.4,143.7c1.2,32.6-45.2,51-248.9,49.8c-9.8-0.1-19.9-0.2-30.5-0.3c-87.2-1.3-84.8,87.3-319.7-32.3
			c-132.2-67.3-196.2-129.6-214.3-184.3C-283.5,398.8-255.7,351.7-203.8,314.6z"/>
		<path class="st0" d="M220.7,217.2c71.6,16.5,344.7,176.9,316.3,258.7c-21.9,63,35.3,116,36.8,152.4c1.5,36.4-52.8,56.2-297.5,52.7
			c-92.9-1.3-90.1,93.3-340.4-34.2c-140.8-71.7-209-138-228.1-196.2c-19.1-58.2,10.8-108.3,66.1-147.6s136-67.9,218.3-83.1
			S158.6,202.9,220.7,217.2z"/>
	</g>
</g>
</svg>
