<?xml version="1.0" encoding="utf-8"?>
<!-- Generator: Adobe Illustrator 19.1.0, SVG Export Plug-In . SVG Version: 6.00 Build 0)  -->
<svg version="1.1" id="Layer_1" xmlns="http://www.w3.org/2000/svg" xmlns:xlink="http://www.w3.org/1999/xlink" x="0px" y="0px"
	 viewBox="0 0 216 288" style="enable-background:new 0 0 216 288;" xml:space="preserve">
<style type="text/css">
	.st0{fill:none;stroke:#000000;stroke-miterlimit:10;}
	.st1{clip-path:url(#SVGID_2_);fill:none;stroke:#000000;stroke-miterlimit:10;}
	.st2{clip-path:url(#SVGID_4_);fill:none;stroke:#000000;stroke-miterlimit:10;}
	.st3{clip-path:url(#SVGID_6_);}
	.st4{clip-path:url(#SVGID_8_);fill:none;stroke:#000000;stroke-miterlimit:10;}
</style>
<path class="st0" d="M52.3,76.8c9,0.9,12.4,4.7,12.3,11.4c-0.2,6.7-4,10.7-10.9,10.9s-12.3-2.8-12.9-11.2S48.2,76.4,52.3,76.8z"/>
<path class="st0" d="M89.3,94.3c10.2,0.5,15.2,2.4,15.2,15.4s-4.1,13.6-13.3,14.7c-9.1,1-17.4-4.8-17.8-17.1
	C73,95,84.9,94.1,89.3,94.3z"/>
<path class="st0" d="M58.2,114.1c6.1,1.1,6.4,1.9,6.4,6c0,5-2.6,5.7-6.4,5.7c-3.8,0-5.6-1.9-5.5-5.7
	C52.6,116.3,54.6,113.5,58.2,114.1z"/>
<path class="st0" d="M96.5,37.8c19,0.2,20.1,5.9,20.3,25.6c0.2,19.6-11.3,18.7-28.7,18.7S72.2,67.7,72.5,56.3S79.8,37.7,96.5,37.8z"
	/>
</svg>
