<?xml version="1.0" encoding="utf-8"?>
<!-- Generator: Adobe Illustrator 19.1.0, SVG Export Plug-In . SVG Version: 6.00 Build 0)  -->
<svg version="1.1" id="Layer_1" xmlns="http://www.w3.org/2000/svg" xmlns:xlink="http://www.w3.org/1999/xlink" x="0px" y="0px"
	 viewBox="0 0 1024 768" style="enable-background:new 0 0 1024 768;" xml:space="preserve">
<style type="text/css">
	.st0{fill:none;stroke:#000000;stroke-miterlimit:10;}
	.st1{fill:none;stroke:#231F20;stroke-width:0.5;stroke-miterlimit:10;}
	.st2{fill:none;}
	.st3{fill:none;stroke:#231F20;stroke-miterlimit:10;}
	.st4{clip-path:url(#SVGID_2_);}
	.st5{fill:#202020;}
	.st6{clip-path:url(#SVGID_4_);}
	.st7{clip-path:url(#SVGID_6_);}
</style>
<path class="st0" d="M22.5,126.1C27.3,61.6,82.2,9.1,149.1,6.6C159.6,2.3,499-0.1,511.7-0.1c20.1,0,365.8,6.1,379,16.1
	c66.5,4.2,120.6,58.5,124.1,124.8c4.8,7.3,7.4,234.4,7.4,243.1s-2.7,235.8-7.4,243.1c-3.6,66.3-57.6,120.6-124.1,124.8
	c-13.2,9.9-358.9,16.1-379,16.1s-365.8-6.1-379-16.1C66.2,747.5,12.1,693.3,8.5,626.9c-4.8-7.3-7.4-234.4-7.4-243.1
	C1.1,368.7,9.3,136.1,22.5,126.1z"/>
<polygon class="st0" points="414.5,250.3 646.1,384 414.5,517.7 "/>
</svg>
