<?xml version="1.0" encoding="utf-8"?>
<!-- Generator: Adobe Illustrator 19.1.0, SVG Export Plug-In . SVG Version: 6.00 Build 0)  -->
<svg version="1.1" id="Layer_1" xmlns="http://www.w3.org/2000/svg" xmlns:xlink="http://www.w3.org/1999/xlink" x="0px" y="0px"
	 viewBox="0 0 768 1024" style="enable-background:new 0 0 768 1024;" xml:space="preserve">
<style type="text/css">
	.st0{fill:none;stroke:#000000;stroke-miterlimit:10;}
	.st1{fill:none;stroke:#231F20;stroke-width:0.5;stroke-miterlimit:10;}
	.st2{fill:none;}
	.st3{fill:none;stroke:#231F20;stroke-miterlimit:10;}
	.st4{clip-path:url(#SVGID_2_);}
	.st5{fill:#202020;}
	.st6{clip-path:url(#SVGID_4_);}
	.st7{clip-path:url(#SVGID_6_);}
</style>
<line class="st0" x1="40" y1="41.5" x2="596" y2="41.5"/>
<line class="st0" x1="40" y1="96.5" x2="629" y2="96.5"/>
<line class="st0" x1="40" y1="151.5" x2="640" y2="151.5"/>
<line class="st0" x1="40" y1="205.5" x2="647" y2="205.5"/>
<line class="st0" x1="40" y1="260.5" x2="677" y2="260.5"/>
<line class="st0" x1="40" y1="315.5" x2="583" y2="315.5"/>
<line class="st0" x1="40" y1="370.5" x2="583" y2="370.5"/>
<line class="st0" x1="40" y1="424.5" x2="640" y2="424.5"/>
<line class="st0" x1="40" y1="479.5" x2="654" y2="479.5"/>
<line class="st0" x1="40" y1="534.5" x2="709" y2="534.5"/>
<line class="st0" x1="40" y1="589.5" x2="577" y2="589.5"/>
<line class="st0" x1="40" y1="643.5" x2="688" y2="643.5"/>
<line class="st0" x1="40" y1="698.5" x2="663" y2="698.5"/>
<line class="st0" x1="40" y1="753.5" x2="665" y2="753.5"/>
<line class="st0" x1="40" y1="808.5" x2="654" y2="808.5"/>
<line class="st0" x1="40" y1="862.5" x2="592" y2="862.5"/>
<line class="st0" x1="40" y1="917.5" x2="700" y2="917.5"/>
<line class="st0" x1="40" y1="972.5" x2="591" y2="972.5"/>
</svg>
