<?xml version="1.0" encoding="utf-8"?>
<!-- Generator: Adobe Illustrator 19.1.0, SVG Export Plug-In . SVG Version: 6.00 Build 0)  -->
<svg version="1.1" id="Layer_1" xmlns="http://www.w3.org/2000/svg" xmlns:xlink="http://www.w3.org/1999/xlink" x="0px" y="0px"
	 viewBox="0 0 288 144" style="enable-background:new 0 0 288 144;" xml:space="preserve">
<style type="text/css">
	.st0{fill:none;stroke:#000000;stroke-miterlimit:10;}
	.st1{clip-path:url(#SVGID_2_);fill:none;stroke:#000000;stroke-miterlimit:10;}
	.st2{clip-path:url(#SVGID_4_);fill:none;stroke:#000000;stroke-miterlimit:10;}
	.st3{clip-path:url(#SVGID_6_);}
	.st4{clip-path:url(#SVGID_8_);fill:none;stroke:#000000;stroke-miterlimit:10;}
</style>
<g>
	<path class="st0" d="M136.4,18.6c30.1-0.3,71.2,7.2,69.8,51.1s-39.5,49.7-69.8,49.7S77.4,92.8,80.9,65.9S100.4,18.9,136.4,18.6z"/>
	<path class="st0" d="M102.7,49.4c1,3.4,3.4,6.5,3.4,6.5"/>
	<path class="st0" d="M108.1,43.4c0,4.5,2.8,10.5,2.8,10.5"/>
	<path class="st0" d="M114.6,43.4c0.1,5.3,2.3,9.8,2.3,9.8"/>
	<path class="st0" d="M122.9,41.8c-0.9,5.7-2.2,11.4-2.2,11.4"/>
	<path class="st0" d="M128.5,45.8c-0.7,3.1-2.2,8.9-2.2,8.9"/>
	<path class="st0" d="M135.3,50.2c-1.5,4.5-4.5,6-4.5,6"/>
	<path class="st0" d="M288,23.1c-43.5,1.5-48.5,14.5-48.5,45.8s33.6,43.3,48.5,42.1"/>
	<path class="st0" d="M257.6,45.8c11.9,10,11.9,10.8,21.9,13.4"/>
</g>
</svg>
